<?xml version="1.0" standalone="no"?>
<!DOCTYPE svg PUBLIC "-//W3C//DTD SVG 20010904//EN"
 "http://www.w3.org/TR/2001/REC-SVG-20010904/DTD/svg10.dtd">
<svg version="1.0" xmlns="http://www.w3.org/2000/svg"
 width="630.000000pt" height="630.000000pt" viewBox="0 0 630.000000 630.000000"
 preserveAspectRatio="xMidYMid meet">
<metadata>
Created by potrace 1.14, written by Peter Selinger 2001-2017
</metadata>
<g transform="translate(0.000000,630.000000) scale(0.100000,-0.100000)"
fill="#000000" stroke="none">
<path d="M3500 5184 c7 -11 19 -21 26 -21 8 0 12 3 9 5 -3 3 1 12 8 21 11 14
10 14 -5 2 -15 -11 -21 -11 -35 0 -15 13 -15 12 -3 -7z"/>
<path d="M3310 5180 c-9 -6 -10 -10 -3 -10 6 0 15 5 18 10 8 12 4 12 -15 0z"/>
<path d="M3335 5170 c-10 -11 -23 -20 -29 -19 -24 3 -37 -1 -31 -10 3 -6 -7
-8 -22 -5 l-28 4 25 -15 25 -16 -24 7 c-16 4 -21 3 -17 -5 5 -7 1 -9 -8 -5 -9
3 -13 11 -9 17 4 6 1 7 -6 3 -9 -6 -8 -13 6 -29 9 -12 11 -16 3 -9 -18 16 -31
15 -24 -1 7 -20 -18 -38 -36 -27 -13 9 -13 10 0 11 8 1 18 1 23 0 11 -2 9 17
-3 24 -5 3 -10 1 -10 -5 0 -6 -4 -9 -9 -6 -14 9 -21 -20 -8 -34 9 -10 6 -10
-13 0 -24 13 -25 12 -7 -7 19 -22 22 -33 6 -33 -5 0 -8 4 -5 9 3 5 -3 11 -14
14 -11 3 -18 1 -15 -3 10 -16 -16 -22 -33 -9 -16 13 -16 12 -1 -6 9 -11 20
-27 24 -35 8 -13 7 -13 -8 -1 -13 11 -17 11 -17 1 0 -8 -3 -10 -7 -7 -3 4 -13
1 -21 -6 -11 -8 -14 -8 -9 0 4 6 3 14 -2 17 -5 4 -12 -2 -15 -11 -4 -14 -4
-14 -3 2 2 15 9 20 31 18 16 -1 25 1 21 5 -3 4 -19 7 -33 7 -17 0 -26 6 -24
14 1 7 -2 10 -8 6 -7 -4 -8 -11 -1 -18 6 -8 5 -18 -4 -30 -11 -16 -13 -16 -19
-2 -4 11 -2 14 6 9 7 -4 8 -3 4 5 -6 9 -11 9 -21 1 -9 -7 -16 -6 -25 5 -15 18
-30 11 -30 -16 0 -10 -4 -19 -9 -19 -5 0 -8 12 -5 28 3 19 2 23 -5 12 -5 -8
-7 -18 -5 -22 3 -4 0 -8 -6 -8 -6 0 -8 -6 -4 -12 4 -7 3 -10 -1 -5 -5 4 -16 0
-25 -8 -14 -13 -16 -12 -17 6 -1 14 3 19 11 16 10 -4 12 1 9 14 -7 25 -21 34
-19 11 0 -9 -6 -17 -14 -17 -8 0 -21 -4 -27 -8 -8 -5 -13 -3 -13 4 0 7 -3 10
-6 6 -12 -12 7 -28 21 -17 9 8 14 7 18 -3 4 -11 -2 -13 -26 -10 -18 3 -40 5
-50 5 -10 -1 -15 4 -11 10 4 6 2 8 -4 4 -6 -3 -9 -15 -7 -26 5 -27 -3 -25 -16
3 -9 21 -9 20 -6 -5 4 -25 2 -26 -17 -16 -26 14 -57 18 -50 6 4 -5 13 -7 21
-4 8 3 11 2 8 -3 -3 -6 -14 -9 -25 -8 -19 1 -25 10 -20 32 1 5 -2 7 -6 3 -4
-4 -12 -1 -19 8 -10 14 -12 14 -24 1 -9 -12 -9 -17 0 -23 7 -4 9 -3 5 4 -3 6
-3 13 2 16 4 2 13 -4 20 -14 10 -16 9 -18 -5 -13 -10 4 -14 2 -10 -4 3 -5 0
-10 -8 -10 -8 0 -12 4 -9 8 6 11 -27 27 -49 24 -9 -2 -15 0 -12 4 2 5 -7 13
-21 20 -15 6 -23 7 -19 1 3 -5 1 -10 -5 -10 -6 0 -9 -4 -5 -9 3 -5 0 -13 -6
-17 -7 -4 -10 -3 -6 2 3 5 -1 20 -10 34 -13 24 -14 24 -10 3 3 -13 0 -26 -5
-30 -7 -4 -8 -1 -3 7 5 8 3 11 -6 8 -8 -3 -13 -11 -11 -18 1 -6 -11 -2 -27 9
-31 23 -46 27 -36 11 3 -5 1 -10 -4 -10 -6 0 -11 5 -11 10 0 6 -5 10 -12 10
-6 0 -3 -10 8 -22 10 -12 13 -18 5 -13 -11 6 -13 4 -8 -8 4 -12 2 -14 -10 -10
-12 5 -14 3 -8 -7 5 -9 4 -11 -3 -6 -7 4 -12 1 -12 -6 0 -8 -3 -9 -8 -3 -9 12
-38 13 -49 1 -4 -5 -3 -7 2 -3 6 3 21 -1 35 -9 l25 -14 -28 6 c-22 5 -26 3
-21 -10 3 -9 11 -13 17 -9 6 3 7 1 3 -6 -4 -6 -12 -8 -18 -5 -8 5 -9 1 -4 -11
5 -15 4 -16 -9 -5 -13 11 -14 10 -9 -4 3 -9 11 -16 17 -16 6 0 7 -3 4 -7 -4
-3 -17 2 -29 13 -22 19 -23 19 -8 -1 8 -11 20 -23 25 -27 6 -5 6 -8 -2 -8 -12
0 -12 -17 -1 -35 4 -6 -2 -11 -13 -12 -19 -2 -25 8 -12 21 13 13 11 35 -5 48
-15 11 -15 11 -5 -3 7 -9 10 -19 6 -23 -13 -13 -14 -56 -1 -56 9 0 9 -3 -2
-10 -10 -6 -20 -4 -32 7 -11 10 -18 12 -18 5 0 -7 5 -12 10 -12 6 0 10 -7 10
-15 0 -8 -5 -15 -11 -15 -5 0 -7 -5 -3 -12 4 -7 3 -8 -4 -4 -7 4 -12 1 -12 -6
-1 -7 -7 -2 -14 11 -11 19 -14 21 -19 7 -3 -8 -2 -18 3 -21 6 -4 10 -12 10
-18 0 -9 -3 -8 -8 1 -5 7 -18 14 -30 17 -16 3 -19 0 -15 -12 4 -10 2 -14 -4
-10 -5 3 -16 -2 -25 -12 -11 -14 -13 -23 -5 -37 10 -19 10 -19 -11 0 -12 10
-19 23 -15 29 3 6 1 7 -5 3 -9 -5 -7 -14 4 -31 15 -23 14 -23 -10 -21 -21 3
-24 1 -15 -11 9 -11 8 -12 -5 -7 -9 3 -16 1 -16 -5 0 -6 -8 -8 -17 -4 -16 5
-15 4 1 -9 16 -12 17 -16 5 -24 -8 -4 -23 -10 -34 -11 -16 -2 -17 -1 -5 6 8 5
18 7 22 5 15 -9 8 3 -9 17 -11 10 -14 10 -9 2 7 -12 -6 -18 -29 -13 -5 1 -1
-9 10 -21 11 -12 14 -19 6 -14 -10 6 -12 2 -6 -16 7 -23 7 -23 -8 -4 -8 11
-13 24 -9 30 3 5 -2 4 -11 -4 -18 -15 -23 -26 -7 -16 6 3 10 -1 10 -9 0 -8 -5
-18 -10 -21 -6 -4 -8 -10 -5 -15 3 -4 -2 -11 -11 -14 -15 -6 -15 -4 0 19 9 14
12 25 7 25 -5 0 -12 -8 -15 -17 -4 -10 -22 -28 -40 -40 -36 -23 -48 -66 -16
-56 13 4 13 4 0 -6 -11 -8 -18 -7 -27 6 -7 9 -10 20 -6 26 3 6 2 7 -4 4 -21
-13 -1 -73 20 -61 7 4 8 3 4 -2 -5 -5 -14 -9 -20 -9 -7 0 -11 -8 -11 -18 1 -9
-3 -14 -8 -11 -5 3 -7 12 -4 20 3 8 0 11 -8 8 -7 -3 -12 -16 -10 -29 2 -22 0
-24 -19 -13 -22 11 -22 10 -4 -10 12 -13 15 -22 8 -27 -10 -6 -15 0 -13 17 1
3 -5 9 -13 12 -17 6 -19 1 -6 -23 10 -18 9 -18 -41 -12 -3 1 -9 9 -11 19 -4
16 -5 16 -6 -1 0 -10 -5 -16 -10 -12 -5 3 -13 0 -17 -6 -4 -7 -3 -9 2 -6 6 3
16 1 24 -4 11 -7 6 -8 -15 -3 -16 3 -35 6 -42 6 -7 1 -10 5 -7 10 3 4 0 8 -5
8 -6 0 -11 5 -11 11 0 5 4 8 9 4 5 -3 12 -1 15 4 4 5 -2 8 -11 6 -11 -1 -17
-10 -16 -22 2 -17 -3 -19 -52 -15 -50 3 -54 2 -49 -15 3 -10 -3 -6 -12 10 -18
26 -34 35 -34 19 0 -4 6 -14 13 -22 9 -11 8 -11 -7 0 -18 14 -19 13 -13 -5 7
-20 7 -20 -8 0 -13 17 -19 18 -45 8 -17 -6 -28 -7 -24 -2 3 5 -5 9 -17 9 -19
0 -20 -2 -8 -17 9 -12 5 -11 -11 3 -37 32 -68 46 -75 34 -4 -6 -15 -4 -30 6
-22 14 -24 14 -35 -8 -10 -20 -9 -21 3 -6 9 11 18 14 28 7 11 -7 10 -10 -9
-15 -12 -4 -22 -11 -23 -18 0 -6 -7 3 -15 19 -11 22 -14 24 -10 8 4 -25 -8
-40 -19 -23 -4 6 -10 8 -15 5 -5 -3 -12 0 -16 6 -4 8 -3 9 4 5 7 -4 12 -2 12
4 0 6 -6 10 -12 9 -27 -3 -39 1 -32 13 4 7 3 8 -4 4 -6 -4 -9 -13 -6 -21 4 -8
10 -12 15 -9 5 3 6 -2 3 -11 -4 -10 -13 -14 -23 -10 -29 12 -46 13 -60 1 -11
-8 -13 -8 -7 2 4 6 3 12 -1 12 -5 0 -15 -6 -22 -12 -11 -10 -13 -10 -7 0 4 6
2 12 -4 12 -7 0 -10 5 -8 11 2 6 8 9 13 7 6 -2 9 -5 8 -8 -1 -3 12 -5 28 -5
16 -1 29 3 29 8 0 5 -6 7 -12 4 -7 -2 -22 1 -33 6 -34 18 -43 16 -40 -9 1 -14
-2 -27 -8 -31 -6 -3 -7 -1 -3 5 4 7 2 12 -4 12 -7 0 -9 7 -6 16 3 9 2 12 -5 9
-6 -4 -8 -13 -5 -21 3 -7 0 -16 -6 -20 -7 -4 -8 -3 -4 4 5 8 -1 12 -18 12 -28
0 -43 15 -24 23 9 4 9 6 1 6 -6 1 -22 -13 -34 -30 -20 -28 -23 -29 -32 -14 -9
17 -11 16 -28 -6 -16 -21 -17 -22 -16 -4 2 20 -4 22 -37 9 -15 -6 -17 -3 -12
17 3 13 3 18 0 11 -3 -6 -11 -9 -17 -5 -20 12 -34 11 -34 -1 0 -7 6 -13 13
-13 7 0 10 5 7 10 -3 6 -1 7 6 3 16 -10 5 -25 -17 -21 -9 2 -21 4 -25 4 -5 1
-6 5 -3 10 3 4 -6 6 -19 3 -14 -2 -25 -9 -25 -14 0 -5 -5 -6 -12 -2 -7 4 -8 3
-4 -5 4 -6 11 -9 16 -6 10 6 8 -15 -3 -33 -5 -7 -12 -10 -17 -7 -4 3 -11 -2
-14 -11 -3 -8 -11 -12 -17 -8 -6 3 -3 -5 6 -20 10 -14 22 -26 28 -26 6 0 -4
-11 -23 -25 -19 -14 -29 -25 -24 -25 6 0 15 5 20 10 8 8 15 6 23 -4 8 -10 9
-16 1 -21 -6 -4 -10 -3 -9 2 4 23 -3 25 -17 5 -9 -13 -20 -19 -27 -15 -9 5 -9
3 -1 -8 6 -8 10 -22 9 -32 -2 -9 0 -15 5 -12 4 3 16 -8 25 -23 18 -27 18 -27
-2 -9 -11 9 -24 17 -29 17 -5 0 -4 -4 1 -8 17 -12 41 -47 28 -38 -9 5 -13 1
-13 -11 0 -15 -2 -16 -10 -3 -5 8 -10 10 -10 4 0 -6 7 -17 16 -24 12 -11 15
-11 12 0 -2 7 4 15 12 17 9 3 11 1 5 -4 -15 -11 -13 -32 3 -42 11 -7 10 -9 -3
-14 -9 -4 -14 -3 -11 1 3 4 -4 13 -15 20 -11 7 -19 8 -19 2 0 -5 5 -10 10 -10
6 0 10 -14 10 -31 0 -20 -4 -28 -12 -23 -7 4 -8 3 -4 -4 4 -6 13 -9 20 -6 8 3
17 0 21 -6 3 -6 1 -9 -6 -8 -6 2 -14 -3 -17 -11 -3 -9 0 -11 9 -6 8 5 11 4 6
0 -4 -5 1 -18 10 -29 10 -12 14 -18 9 -14 -5 4 -16 2 -25 -5 -14 -10 -14 -10
-3 4 10 14 10 18 -1 22 -11 4 -13 -3 -10 -30 3 -25 0 -33 -8 -27 -7 4 -9 3 -6
-3 4 -6 18 -9 32 -8 14 2 23 -1 19 -6 -3 -5 -9 -7 -14 -4 -5 3 -12 0 -15 -6
-4 -5 -13 -8 -21 -5 -7 3 -16 1 -19 -4 -3 -5 8 -7 25 -5 17 2 28 0 25 -5 -3
-5 -1 -11 4 -15 12 -7 3 -35 -11 -35 -6 0 -6 6 1 14 8 10 9 16 1 21 -5 3 -10
-1 -10 -11 0 -14 -2 -15 -17 -3 -16 12 -16 11 0 -8 14 -16 15 -22 5 -27 -7 -3
-4 -4 8 -1 14 4 21 0 21 -9 0 -9 -5 -13 -10 -9 -5 3 -6 -3 -3 -15 4 -12 2 -23
-5 -28 -7 -4 -9 -3 -5 4 3 6 2 13 -3 16 -5 4 -8 -2 -6 -11 1 -10 8 -17 14 -15
6 1 11 -2 11 -7 0 -14 -26 -31 -36 -23 -4 4 -2 -1 5 -10 7 -10 19 -18 25 -18
6 0 5 4 -3 9 -9 6 -10 11 -3 15 6 4 16 -3 22 -15 8 -15 9 -19 1 -15 -6 4 -11
3 -11 -3 0 -6 -6 -9 -12 -7 -7 1 -10 1 -5 -1 4 -3 7 -11 7 -19 0 -8 4 -14 9
-14 5 0 8 -14 6 -30 -3 -21 -1 -28 7 -24 7 4 8 3 4 -5 -4 -6 -11 -9 -16 -6 -4
3 -10 -4 -13 -16 -5 -17 -3 -18 9 -8 13 11 14 8 8 -16 -5 -22 -4 -26 7 -20 11
6 12 5 2 -6 -18 -19 -16 -29 5 -23 14 5 14 4 2 -4 -8 -6 -17 -9 -21 -6 -4 2
-9 -3 -12 -11 -4 -9 -1 -12 7 -9 7 3 18 -2 25 -10 10 -12 7 -14 -21 -11 -18 3
-27 2 -21 -1 10 -4 10 -11 2 -27 -9 -20 -9 -20 4 -4 18 22 28 22 20 0 -4 -10
-2 -14 4 -10 7 4 10 0 9 -10 -3 -18 -12 -21 -24 -7 -4 4 -1 4 7 -1 9 -5 12 -4
7 3 -4 6 -14 8 -23 5 -11 -4 -13 -8 -5 -11 7 -2 12 -11 12 -20 0 -15 -2 -15
-10 -2 -5 8 -10 10 -10 4 0 -6 8 -18 17 -25 10 -8 14 -9 10 -2 -10 16 12 28
26 14 9 -9 8 -11 -5 -6 -17 7 -20 -9 -5 -32 4 -6 2 -15 -4 -19 -7 -4 -9 -3 -6
2 3 6 -3 15 -14 22 -11 7 -19 8 -19 2 0 -5 5 -10 10 -10 6 0 10 -14 10 -31 0
-20 -4 -28 -12 -23 -7 4 -8 3 -4 -4 4 -6 13 -9 20 -6 8 3 17 0 21 -6 3 -6 1
-9 -6 -8 -6 2 -14 -3 -17 -11 -2 -8 0 -11 6 -7 6 3 13 2 16 -3 4 -5 -1 -8 -10
-7 -8 1 -20 9 -25 17 -5 9 -9 10 -9 2 0 -6 10 -19 22 -27 12 -9 17 -16 11 -16
-6 0 -14 -7 -17 -16 -6 -15 -4 -15 11 -3 15 12 16 12 10 -3 -3 -10 -2 -20 4
-24 6 -4 5 -11 -3 -21 -7 -9 -12 -18 -10 -20 1 -1 2 -8 2 -14 0 -8 -5 -8 -15
1 -10 9 -15 9 -15 1 0 -6 5 -11 10 -11 6 0 10 -10 10 -22 0 -19 -2 -20 -10 -8
-5 8 -10 10 -10 4 0 -6 8 -18 17 -25 10 -8 14 -9 10 -2 -10 16 12 28 26 14 9
-9 8 -11 -5 -6 -17 7 -20 -9 -5 -32 4 -6 2 -15 -4 -19 -7 -4 -9 -3 -6 2 3 6
-3 15 -14 22 -11 7 -19 8 -19 2 0 -5 5 -10 10 -10 6 0 10 -14 10 -31 0 -20 -4
-28 -12 -23 -7 4 -8 3 -4 -4 4 -6 13 -9 20 -6 8 3 17 0 21 -6 3 -6 1 -9 -6 -8
-6 2 -14 -3 -17 -11 -2 -8 0 -11 6 -7 6 3 13 2 16 -3 4 -5 -1 -8 -10 -7 -8 1
-20 9 -25 17 -5 9 -9 10 -9 2 0 -6 10 -19 22 -27 12 -9 17 -16 11 -16 -6 0
-14 -7 -17 -16 -6 -15 -4 -15 11 -3 15 12 16 12 10 -3 -3 -10 -2 -20 4 -23 5
-4 6 -12 2 -18 -4 -7 -8 -16 -9 -22 -1 -5 -3 -14 -4 -20 -5 -22 1 -36 13 -29
10 6 10 4 0 -7 -16 -16 -17 -33 -1 -23 7 4 8 3 4 -5 -4 -6 -11 -9 -16 -6 -4 3
-10 -2 -14 -10 -3 -8 0 -17 6 -21 7 -4 8 -3 4 4 -4 7 -2 12 4 12 7 0 10 -6 7
-14 -3 -7 -1 -18 4 -23 6 -6 3 -15 -8 -24 -16 -13 -17 -12 -5 2 10 14 10 18
-4 23 -23 9 -31 7 -15 -3 13 -8 13 -12 0 -27 -11 -15 -12 -16 0 -9 11 6 13 2
9 -19 -4 -21 -3 -24 8 -15 17 14 18 -2 2 -20 -9 -10 -9 -12 -1 -7 6 3 15 1 19
-5 4 -8 3 -9 -4 -5 -17 10 -15 -6 5 -34 13 -20 14 -22 2 -13 -22 18 -32 4 -11
-16 10 -9 11 -11 3 -6 -12 9 -12 7 -2 -13 7 -12 17 -20 23 -16 6 4 8 3 4 -4
-3 -6 6 -15 21 -20 19 -7 22 -11 10 -11 -10 -1 -16 -5 -12 -10 3 -5 0 -13 -6
-17 -8 -5 -10 -1 -7 14 4 13 0 23 -9 26 -20 8 -23 8 -23 -5 0 -5 5 -7 10 -4 6
3 10 -3 10 -14 0 -23 16 -36 25 -21 5 7 12 5 22 -7 13 -17 13 -16 4 4 -14 28
15 41 38 17 13 -14 13 -15 1 -9 -8 5 -12 4 -7 0 4 -5 -1 -18 -10 -29 -11 -12
-4 -9 16 7 21 17 40 26 50 22 30 -12 60 -15 65 -6 3 4 -6 7 -19 5 -14 -1 -28
3 -32 9 -3 7 -3 9 2 5 4 -4 15 -2 23 5 10 8 13 8 9 1 -10 -17 57 -11 80 7 16
12 17 12 6 -1 -9 -12 -8 -20 4 -35 15 -20 15 -20 9 1 -5 18 -2 20 29 19 19 -1
38 -5 43 -10 4 -5 2 -5 -5 -1 -6 3 -15 2 -18 -4 -5 -8 -11 -7 -21 1 -8 6 -14
7 -14 3 0 -5 9 -15 20 -22 16 -10 20 -10 18 0 -2 8 6 13 19 12 26 -2 29 6 11
24 -9 9 -9 12 0 12 7 0 12 -4 12 -10 0 -5 10 -10 23 -10 18 0 19 2 7 10 -8 5
-10 10 -4 10 6 0 18 -8 25 -17 10 -11 10 -14 2 -9 -8 4 -13 2 -13 -4 0 -7 6
-10 14 -7 7 3 19 0 27 -6 7 -7 5 0 -4 15 -19 30 -12 39 8 11 9 -13 14 -13 20
-3 6 9 4 11 -5 5 -9 -5 -11 -4 -6 4 4 6 12 9 17 5 5 -3 7 -9 4 -14 -10 -16 23
-18 46 -3 12 9 19 11 15 5 -4 -7 -1 -12 8 -12 9 0 19 0 24 0 4 0 7 5 7 10 0 6
3 9 6 8 3 -2 14 4 25 12 10 8 16 10 12 6 -4 -5 -2 -16 5 -24 10 -13 9 -14 -3
-7 -20 12 -41 15 -35 5 9 -15 44 -18 55 -5 12 15 44 9 35 -6 -3 -4 11 -1 31 7
33 14 36 14 31 0 -4 -10 -1 -13 8 -10 8 3 13 9 12 12 -1 4 2 7 8 7 5 0 10 -6
12 -13 1 -8 5 -17 9 -20 4 -4 4 1 1 11 -6 17 9 22 71 19 15 -1 20 3 15 11 -4
7 2 6 13 -3 29 -22 30 -24 14 -18 -12 4 -16 -1 -16 -17 0 -13 4 -21 8 -19 5 3
6 10 3 15 -6 8 8 13 27 10 4 0 5 6 2 13 -4 11 0 13 16 9 12 -3 29 2 41 13 13
12 19 14 17 5 -2 -7 3 -16 11 -19 9 -3 11 0 6 9 -5 8 1 6 12 -4 18 -15 23 -16
35 -4 12 12 15 12 27 0 11 -12 11 -14 -2 -11 -9 2 -16 0 -16 -4 -1 -11 2 -12
27 -4 19 6 21 10 11 22 -6 8 -7 14 -2 14 5 0 15 -9 23 -19 7 -11 18 -17 23
-14 5 3 4 -4 -2 -16 -13 -24 -26 -29 -18 -6 9 21 -9 27 -24 8 -12 -14 -12 -16
0 -8 11 6 13 4 8 -8 -4 -11 -1 -15 14 -12 12 3 19 -2 20 -13 0 -14 2 -13 8 3
5 11 7 23 5 27 -3 4 0 9 5 12 6 4 8 -7 6 -26 l-4 -33 14 25 c16 29 19 22 6
-13 -6 -14 -6 -29 0 -38 6 -10 9 -11 10 -1 3 26 4 31 9 36 11 11 9 -38 -2 -52
-6 -7 -7 -12 -2 -11 37 7 51 -2 52 -32 0 -18 6 -37 11 -42 6 -6 11 -8 11 -4 0
4 9 3 20 -3 16 -9 18 -8 14 5 -3 8 -11 12 -17 8 -5 -3 -7 -1 -3 5 3 6 1 14 -5
18 -7 4 -9 3 -5 -4 3 -6 1 -14 -5 -18 -9 -5 -10 0 -7 14 4 13 1 22 -5 22 -6 0
-8 2 -5 5 10 11 34 -6 52 -35 9 -17 21 -28 25 -26 4 3 8 -1 8 -8 0 -8 -9 -12
-21 -10 -13 3 -15 2 -6 -2 28 -13 59 -41 52 -48 -3 -4 2 -4 11 0 10 3 17 3 16
-2 -5 -28 3 -34 34 -30 17 3 26 3 19 -1 -10 -4 -9 -9 5 -20 10 -8 12 -12 6 -8
-9 4 -11 1 -7 -10 5 -13 9 -13 22 -3 12 10 14 10 8 1 -9 -16 6 -17 20 -3 7 7
11 6 11 -4 0 -8 -4 -13 -9 -10 -4 3 -8 -1 -8 -9 0 -10 7 -13 20 -10 12 3 20 0
20 -6 0 -7 -4 -10 -8 -7 -5 3 -9 -1 -9 -9 0 -11 4 -12 14 -4 19 16 16 -1 -4
-25 -18 -21 -18 -21 5 -2 12 11 22 14 22 8 0 -7 5 -12 10 -12 6 0 3 11 -6 25
-9 14 -14 28 -10 32 3 3 6 1 6 -6 0 -7 4 -10 9 -7 5 3 8 0 7 -7 0 -6 4 -14 9
-16 14 -6 35 -28 35 -37 0 -3 -7 -1 -15 6 -9 7 -15 8 -15 2 0 -18 29 -21 40
-4 9 14 10 12 4 -8 -6 -23 -6 -24 11 -10 11 9 16 10 11 3 -4 -8 -1 -13 8 -13
9 0 16 -5 16 -11 0 -7 9 -9 21 -6 16 4 18 3 9 -8 -8 -9 -6 -14 6 -19 9 -4 19
-4 22 -1 3 3 -1 5 -8 5 -7 0 -11 2 -8 5 10 10 38 -7 31 -19 -11 -17 -12 -37
-2 -30 5 3 7 10 4 15 -4 5 1 9 10 9 10 0 13 -5 9 -12 -6 -10 -4 -10 8 0 13 10
17 10 22 -4 5 -14 9 -14 23 -3 10 8 14 9 10 2 -4 -6 -3 -14 3 -18 5 -3 10 0
10 7 0 8 4 7 11 -4 5 -10 17 -15 27 -12 14 5 14 4 2 -4 -9 -7 -18 -7 -26 -1
-8 6 -14 5 -17 -5 -4 -11 -1 -13 10 -9 12 5 14 3 8 -7 -5 -8 -4 -11 3 -6 5 3
12 3 15 -1 2 -5 2 -2 1 4 -2 7 1 13 6 13 9 0 14 -15 11 -33 -1 -5 4 -5 10 -1
9 5 10 2 6 -9 -9 -24 0 -21 13 3 8 15 8 20 -1 18 -6 -2 -13 3 -15 10 -1 7 0 8
3 2 3 -7 10 -7 21 2 13 11 14 11 7 -1 -6 -11 -4 -13 8 -8 10 4 16 2 14 -5 -1
-5 7 -12 17 -14 20 -3 38 -23 30 -35 -5 -8 17 -6 51 6 18 6 18 5 -3 -14 -21
-18 -21 -20 -3 -18 11 0 17 5 15 9 -8 12 11 9 24 -4 7 -7 12 -9 12 -5 0 4 9 3
19 -3 13 -6 22 -7 26 0 3 5 12 7 20 3 8 -3 15 1 15 8 0 7 3 9 6 6 4 -4 1 -14
-7 -23 -12 -15 -11 -16 9 -10 18 6 21 4 16 -11 -4 -14 -4 -15 4 -4 13 18 32 5
27 -19 -2 -11 0 -22 5 -25 4 -3 7 3 5 12 -1 10 3 24 9 32 9 12 8 13 -3 6 -10
-6 -12 -4 -6 5 5 8 4 11 -3 6 -6 -3 -13 -2 -16 3 -4 5 0 8 6 7 24 -3 39 -18
34 -33 -3 -8 -1 -11 5 -8 5 4 7 15 4 26 -4 11 -2 19 4 19 6 0 10 -5 8 -12 -2
-14 25 -18 34 -5 3 5 9 -1 12 -12 4 -17 2 -19 -13 -11 -13 7 -21 5 -31 -8 -13
-15 -12 -16 4 -3 11 9 17 10 17 2 0 -6 6 -10 13 -8 6 1 11 -3 10 -10 -2 -7 4
-10 13 -6 9 3 12 9 7 12 -4 3 -9 15 -10 26 -1 11 0 14 3 8 7 -16 54 -17 54 -1
0 6 3 8 6 5 10 -10 -17 -38 -29 -30 -6 3 -7 1 -3 -6 6 -8 12 -9 20 -2 9 7 16
7 23 0 8 -8 13 -7 18 2 5 8 4 10 -3 5 -7 -4 -12 -3 -12 2 0 6 7 13 16 16 8 3
13 2 10 -2 -3 -5 4 -16 15 -25 27 -24 36 -21 13 5 -10 12 -13 18 -7 14 24 -14
57 -16 65 -3 6 8 10 5 14 -11 4 -12 11 -22 16 -22 5 0 6 5 2 12 -5 7 -3 8 5 3
18 -10 -2 -27 -22 -19 -9 3 -15 9 -13 13 3 4 -4 7 -15 7 -28 0 -23 -13 8 -21
19 -4 23 -9 14 -14 -9 -6 -10 -11 -2 -15 6 -4 11 -2 11 3 0 6 5 11 11 11 5 0
8 -4 5 -9 -3 -4 6 -7 19 -5 14 1 25 -2 25 -7 0 -6 -7 -9 -16 -7 -9 2 -18 -4
-19 -14 -2 -13 3 -15 27 -13 26 4 28 2 17 -11 -10 -13 -8 -14 19 -9 20 3 32 1
32 -5 0 -6 -4 -9 -9 -5 -5 3 -12 2 -15 -3 -8 -13 38 -12 46 1 5 7 7 0 4 -15
-3 -15 0 -31 6 -34 7 -4 8 -2 4 4 -4 7 -3 12 2 12 6 0 9 8 7 18 -1 9 0 12 2 5
2 -6 15 -9 29 -7 13 2 24 0 24 -5 0 -6 -9 -8 -19 -6 -14 3 -18 -1 -14 -12 5
-12 7 -12 14 -1 7 10 9 10 9 -2 1 -9 6 -5 16 10 12 20 14 21 9 4 -4 -14 -1
-21 9 -21 9 0 13 4 10 9 -3 4 3 8 13 8 11 0 24 5 31 12 7 7 12 8 12 4 0 -5 8
-2 18 5 15 13 16 12 3 -4 -8 -10 -9 -17 -3 -17 6 0 14 5 17 11 4 6 13 8 21 5
8 -3 14 1 14 9 0 7 5 17 12 21 6 4 8 3 5 -3 -8 -12 20 -26 34 -17 5 3 6 10 3
16 -5 8 -1 9 10 5 10 -4 15 -3 11 3 -3 6 -1 10 5 10 6 0 8 5 4 11 -4 8 -9 8
-17 0 -14 -14 -27 -14 -27 0 0 5 4 8 9 4 5 -3 12 -1 16 4 3 6 13 7 22 4 10 -4
14 -2 10 4 -5 7 0 9 13 6 12 -3 22 1 26 11 3 9 10 13 15 10 5 -3 9 0 9 5 0 6
-6 11 -12 12 -7 0 -3 4 9 9 16 6 21 15 17 27 -5 15 -4 16 5 3 9 -13 11 -13 12
0 1 8 0 22 -1 30 -1 8 1 12 5 8 13 -13 13 -58 -1 -58 -18 0 -23 -12 -13 -35 9
-19 9 -19 5 2 -2 14 2 23 13 26 9 2 17 15 18 28 5 57 41 85 73 57 12 -11 12
-10 1 4 -9 12 -10 22 -2 35 8 14 10 15 11 3 0 -13 1 -13 11 0 9 13 10 13 6 0
-2 -8 -11 -14 -18 -12 -12 3 -12 1 0 -10 11 -10 14 -10 18 0 3 6 8 10 13 7 4
-3 7 3 6 11 0 9 7 18 17 19 9 2 15 -1 11 -6 -3 -5 -10 -7 -15 -4 -5 3 -6 -1
-2 -11 5 -15 7 -15 15 0 5 9 14 14 20 10 7 -4 7 0 0 13 -9 15 -8 20 3 20 8 0
11 -5 8 -10 -4 -6 0 -8 9 -4 9 3 20 1 26 -5 6 -6 12 -6 17 1 3 6 1 10 -6 9 -6
-2 -14 3 -16 10 -4 9 1 10 22 2 31 -12 60 4 51 27 -4 9 -1 11 6 7 8 -5 9 -2 5
10 -4 11 -3 15 4 11 6 -4 8 -13 5 -21 -3 -7 0 -16 6 -20 7 -4 8 -3 4 4 -4 7
-2 12 4 12 6 0 9 4 6 8 -2 4 -1 14 3 21 6 10 10 9 14 -4 5 -10 3 -14 -5 -9 -7
4 -8 3 -4 -4 11 -19 29 -14 24 6 -3 12 2 24 14 31 12 7 17 8 13 2 -4 -7 5 -11
24 -11 16 0 34 7 38 15 5 8 19 16 33 18 13 2 26 10 28 18 3 11 2 12 -6 1 -7
-11 -10 -11 -15 3 -4 9 -3 14 2 11 5 -3 14 1 21 9 7 8 17 12 23 8 6 -4 8 0 4
10 -4 10 -2 16 6 14 7 -1 11 4 9 11 -1 8 2 11 9 7 8 -5 8 -10 0 -18 -6 -6 -11
-16 -11 -22 0 -5 5 -2 11 8 6 9 15 15 21 11 5 -4 2 5 -7 20 -16 24 -16 26 -1
20 9 -3 16 -10 16 -15 0 -5 5 -9 10 -9 7 0 7 6 1 19 -14 24 34 70 53 50 8 -9
8 -10 -2 -5 -7 4 -15 1 -18 -8 -3 -9 -10 -14 -14 -11 -14 8 -5 -24 10 -38 12
-10 12 -9 2 4 -10 14 -8 19 15 35 16 10 33 19 38 19 6 0 10 7 10 15 0 8 9 22
21 30 21 15 22 46 2 34 -7 -4 -8 -2 -4 4 4 6 13 9 21 5 9 -3 21 0 29 6 7 6 17
7 21 3 5 -4 5 -1 1 6 -6 10 -11 10 -22 1 -8 -7 -14 -7 -14 -1 0 5 7 12 15 16
8 3 14 11 13 18 -2 7 5 12 14 10 10 -2 16 3 14 10 -1 7 -1 10 1 6 7 -11 43 11
43 25 0 8 -4 7 -10 -3 -7 -12 -9 -10 -7 8 2 28 11 28 25 -1 11 -22 11 -22 8 3
-2 14 2 34 10 45 8 10 14 13 14 7 0 -7 7 -12 16 -12 14 0 14 1 0 16 -14 14
-14 34 0 34 3 0 3 -4 0 -9 -3 -5 7 -17 22 -27 20 -13 24 -14 14 -2 -10 12 -9
18 3 28 11 9 12 17 4 32 -8 15 -8 19 1 13 7 -4 10 -1 8 11 -2 15 2 18 19 16
16 -2 21 1 18 10 -4 9 3 14 17 15 16 2 19 0 10 -6 -11 -7 -10 -10 3 -14 9 -4
14 -3 11 2 -3 5 5 8 19 7 18 -1 24 -5 20 -16 -5 -11 -3 -12 6 -3 14 14 3 34
-15 27 -8 -3 -17 -1 -21 5 -4 7 0 8 11 4 12 -4 15 -3 10 6 -4 6 9 2 28 -9 35
-19 47 -15 24 8 -7 7 -8 12 -4 12 5 0 14 -7 21 -17 9 -13 14 -13 20 -3 6 9 4
11 -5 5 -9 -5 -11 -4 -6 4 4 6 12 9 17 5 5 -3 7 -9 4 -14 -8 -13 18 -18 42 -7
12 5 19 15 16 21 -4 6 1 4 11 -4 11 -8 29 -13 42 -12 19 3 23 0 18 -15 -5 -14
-4 -15 4 -3 6 8 9 17 6 21 -2 4 1 11 7 15 7 4 9 3 6 -3 -4 -6 5 -15 20 -22 24
-11 25 -10 13 4 -11 13 -10 14 5 9 14 -6 16 -4 10 6 -5 9 -4 11 4 6 6 -4 9
-11 6 -16 -3 -4 5 -6 17 -2 21 5 22 4 8 -14 -14 -18 -14 -18 3 -5 9 7 17 10
17 6 0 -4 7 -2 15 5 14 12 20 7 15 -15 -1 -5 4 -4 12 3 11 11 10 14 -2 22 -8
5 -19 5 -25 0 -6 -5 -18 -2 -30 6 -19 15 -19 15 7 9 21 -5 29 -3 34 9 3 9 11
13 16 10 6 -4 6 -9 1 -13 -5 -3 -1 -14 9 -23 10 -10 18 -14 18 -9 0 5 6 8 13
7 6 -1 12 -6 12 -11 0 -6 -4 -9 -8 -7 -5 1 -5 -2 -2 -8 5 -8 13 -6 24 4 10 9
20 15 22 14 2 -2 3 -1 1 2 -2 3 -9 5 -14 5 -6 0 -12 6 -14 13 -1 7 0 8 3 2 3
-7 13 -5 26 7 15 12 18 13 9 2 -10 -14 -6 -16 41 -16 35 -1 58 4 71 15 11 10
16 11 12 4 -4 -7 -1 -15 9 -18 13 -5 13 -9 3 -23 -11 -14 -11 -14 3 -4 9 7 20
9 24 5 5 -4 5 1 2 11 -5 12 -3 16 4 11 6 -4 15 -1 19 6 5 8 9 8 13 -4 4 -9 1
-15 -5 -13 -7 1 -13 -7 -15 -18 -2 -15 -1 -16 5 -5 4 9 16 15 27 15 11 0 23
-6 27 -15 6 -11 7 -10 5 5 -1 11 -9 20 -16 20 -8 0 -16 6 -18 13 -6 16 9 16
25 0 10 -10 15 -10 22 2 5 8 10 10 10 5 0 -6 9 -11 21 -12 18 -2 19 0 7 15 -9
13 -7 12 10 -2 12 -11 22 -15 22 -11 0 4 9 0 20 -10 20 -19 29 -8 9 12 -8 8
-8 13 0 18 7 3 10 1 9 -6 -4 -18 23 -18 47 0 16 13 18 14 10 1 -13 -19 -13
-56 0 -51 6 2 9 12 7 21 -2 13 4 17 20 16 13 -1 30 3 38 10 13 11 15 8 16 -17
1 -17 6 -35 12 -41 8 -8 9 -5 5 10 -4 17 -1 21 16 17 18 -3 20 -1 11 15 -12
22 6 32 33 18 9 -5 17 -5 16 -1 -3 17 14 52 22 47 5 -3 9 0 9 5 0 12 -13 14
-24 4 -10 -11 -37 -12 -30 -2 3 5 10 6 16 3 7 -5 9 -2 6 8 -5 11 0 14 17 12
17 -1 22 2 18 12 -3 8 -9 14 -15 14 -5 0 -6 -4 -3 -10 10 -16 -1 -12 -15 6
-11 12 -11 15 0 12 16 -4 20 24 5 34 -6 5 -6 8 3 8 6 0 12 5 12 11 0 5 -4 7
-10 4 -5 -3 -10 -1 -10 5 0 7 7 10 15 6 8 -3 15 -1 15 3 0 5 -7 11 -15 15 -8
3 -15 11 -14 18 0 10 2 10 6 1 2 -7 12 -13 20 -13 9 0 13 6 10 14 -3 7 0 19 6
26 9 10 9 11 -1 5 -9 -5 -12 -1 -10 11 2 11 7 22 11 25 5 3 1 9 -8 12 -9 4
-13 3 -10 -3 3 -6 2 -10 -4 -10 -5 0 -9 9 -8 20 1 23 8 25 27 8 12 -11 12 -10
3 2 -15 22 -16 97 -1 82 7 -7 17 -12 23 -12 5 0 2 5 -8 11 -10 6 -14 16 -10
22 3 7 -4 3 -17 -8 l-23 -20 13 25 c15 27 14 29 -9 48 -13 10 -11 10 12 2 25
-9 27 -8 18 9 -6 10 -8 21 -5 24 3 3 -4 10 -15 17 -12 6 -21 16 -20 23 0 9 2
9 6 0 6 -16 33 -17 33 -3 0 6 -10 15 -22 20 -18 7 -19 9 -5 9 9 1 17 6 17 12
0 5 4 8 9 5 5 -4 4 5 -2 18 -8 16 -14 20 -19 13 -4 -7 -6 -2 -5 11 1 24 8 27
23 12 6 -6 15 -6 24 1 12 8 11 9 -5 7 -11 -2 -20 2 -20 9 0 6 -4 15 -9 20 -5
4 -7 3 -3 -3 3 -6 0 -11 -7 -11 -7 0 -13 6 -13 13 0 7 4 11 9 8 4 -3 8 -1 8 5
0 5 -4 13 -10 16 -5 3 -10 12 -9 18 0 8 2 8 6 -1 4 -10 10 -7 22 10 16 23 23
71 9 62 -4 -3 -8 -1 -8 5 0 6 -8 8 -17 4 -15 -5 -14 -3 2 10 15 11 22 12 28 4
5 -7 6 -4 2 8 -4 11 -10 30 -12 42 -3 13 -9 20 -14 17 -5 -3 -6 2 -3 10 3 8
13 12 22 9 14 -4 15 -3 2 5 -9 7 -19 7 -25 2 -8 -7 -12 -5 -12 5 0 7 3 14 6
13 20 -2 22 4 5 17 -18 14 -17 14 9 5 25 -9 27 -8 18 9 -6 10 -8 21 -5 24 3 3
-4 10 -15 17 -12 6 -21 16 -20 23 0 9 2 9 6 0 6 -16 33 -17 33 -3 0 6 -10 15
-22 20 -18 7 -19 9 -5 9 9 1 17 6 17 12 0 5 4 8 9 5 5 -4 4 5 -2 18 -8 16 -14
20 -19 13 -4 -7 -6 -2 -5 11 1 24 8 27 23 12 6 -6 15 -6 24 1 12 8 11 9 -5 7
-11 -2 -20 2 -20 9 0 6 -4 15 -9 20 -5 4 -7 3 -3 -3 3 -6 0 -11 -7 -11 -7 0
-13 6 -13 13 0 7 4 11 9 8 4 -3 8 -1 8 5 0 5 -4 13 -10 16 -5 3 -10 12 -9 18
0 8 2 8 6 -1 4 -10 10 -7 22 10 16 23 23 71 9 62 -4 -3 -8 -1 -8 5 0 6 -8 8
-17 4 -15 -5 -14 -3 2 10 15 11 22 12 28 4 5 -7 6 -4 2 8 -4 11 -10 31 -13 45
-4 20 -2 23 9 13 7 -7 18 -13 24 -13 5 0 2 5 -8 11 -10 6 -14 16 -10 22 3 7
-4 3 -17 -8 l-23 -20 11 20 c13 27 12 38 -7 53 -13 10 -11 10 12 2 25 -9 27
-8 18 9 -6 10 -8 21 -5 24 3 3 -4 10 -15 17 -12 6 -21 16 -20 23 0 9 2 9 6 0
6 -16 33 -17 33 -3 0 6 -10 15 -22 20 -18 7 -19 9 -5 9 9 1 17 6 17 12 0 5 4
8 9 5 5 -4 4 5 -2 18 -8 16 -14 20 -19 13 -4 -7 -6 -2 -5 11 1 24 8 27 23 12
6 -6 15 -6 24 1 12 8 12 9 -4 7 -16 -3 -20 4 -23 42 -3 35 -1 42 9 32 6 -6 17
-12 22 -12 6 0 3 5 -7 11 -10 6 -14 16 -10 22 3 7 -4 3 -17 -8 l-23 -20 11 20
c15 30 15 36 -5 51 -16 13 -15 13 10 4 21 -7 26 -7 21 2 -12 20 -13 82 -1 97
9 12 9 13 0 7 -7 -4 -13 -2 -13 3 0 6 -5 10 -11 9 -6 -2 -13 5 -14 15 -3 17
-2 17 20 3 15 -10 26 -12 30 -6 4 6 1 9 -7 8 -9 -2 -12 7 -11 27 1 17 -1 22
-3 13 -3 -9 -14 -16 -24 -15 -10 1 -16 5 -14 9 3 5 11 6 17 2 7 -3 1 4 -12 15
-13 12 -18 21 -12 21 18 0 26 -5 23 -13 -1 -5 2 -5 8 -2 6 4 9 10 6 13 -3 3
-1 11 5 18 11 13 4 14 -40 2 -8 -2 -15 8 -18 25 -2 17 0 26 6 23 5 -4 8 -15 6
-26 -2 -12 0 -18 6 -15 5 4 7 11 4 16 -4 5 -1 9 4 9 6 0 11 5 11 10 0 6 -6 9
-12 8 -7 -2 -12 3 -10 10 3 17 -9 15 -24 -5 -10 -15 -15 -16 -26 -5 -11 11
-10 12 2 7 12 -4 16 2 15 25 0 30 -1 30 -14 11 -7 -12 -18 -21 -23 -21 -6 0
-5 7 3 16 10 13 10 17 -1 24 -8 5 -18 6 -22 4 -4 -3 -8 0 -8 7 0 10 -3 10 -12
1 -15 -15 -28 -15 -28 -1 0 5 4 7 10 4 6 -4 7 1 3 11 -4 11 -8 13 -11 6 -2 -7
-13 -12 -23 -12 -12 0 -17 -4 -13 -11 5 -8 1 -8 -13 0 -14 7 -24 7 -33 -2 -9
-8 -11 -8 -7 -1 10 18 -48 40 -59 23 -3 -5 -11 -6 -17 -2 -20 13 -36 12 -31
-2 3 -7 0 -16 -7 -21 -7 -4 -10 -3 -5 4 8 13 -10 19 -46 14 -24 -4 -27 -7 -17
-21 6 -9 0 -4 -14 11 -31 33 -63 29 -46 -5 9 -20 9 -20 -4 -4 -16 20 -63 23
-70 5 -2 -7 -4 -1 -4 13 0 22 3 26 21 23 20 -4 20 -4 1 5 -23 10 -61 -18 -41
-31 8 -5 7 -11 -3 -20 -9 -8 -11 -9 -7 -1 8 15 -10 27 -19 13 -4 -7 -12 -7
-18 -2 -11 7 -19 8 -44 3 -5 -1 -1 -6 7 -11 11 -7 8 -8 -13 -6 -15 1 -41 13
-57 25 -36 26 -39 19 -6 -12 21 -20 22 -23 6 -23 -10 0 -17 3 -15 6 2 4 -4 12
-15 20 -10 7 -17 18 -16 24 2 6 1 8 -1 3 -3 -4 -9 -5 -13 -2 -5 3 -12 0 -16
-6 -4 -7 -3 -9 3 -6 6 4 16 0 23 -8 9 -10 9 -15 1 -15 -6 0 -11 4 -11 8 0 11
-39 12 -45 1 -4 -5 -11 -7 -16 -3 -5 3 -7 10 -4 15 3 5 -2 6 -11 2 -10 -4 -20
0 -26 10 -5 10 -14 17 -19 17 -6 0 -3 -7 6 -16 9 -9 13 -19 10 -22 -3 -4 -10
-1 -14 7 -6 10 -10 9 -15 -4 -5 -15 -9 -15 -23 -4 -15 12 -16 12 -10 -6 7 -20
7 -20 -8 0 -14 17 -17 18 -25 5 -6 -9 -10 -10 -10 -3 0 7 -10 17 -22 23 -21
10 -21 10 -5 -3 16 -13 16 -15 2 -21 -10 -3 -14 -2 -10 5 9 13 -27 8 -37 -6
-5 -6 -8 -4 -8 5 0 13 -1 13 -11 0 -9 -13 -10 -13 -6 0 2 8 14 14 25 14 12 -1
22 3 22 7 0 5 -11 7 -26 5 -16 -3 -27 0 -31 10 -5 13 -7 13 -14 2 -5 -7 -9
-17 -9 -23 0 -5 5 -3 10 5 8 13 10 12 10 -2 0 -21 -18 -24 -26 -4 -6 15 -20
16 -44 2 -8 -5 -12 -6 -8 -1 9 9 -19 65 -32 65 -6 0 -10 6 -10 14 0 10 -7 13
-21 11 -17 -3 -19 -2 -9 10 6 8 9 18 6 24 -3 5 -1 12 4 14 6 3 5 4 -2 3 -7 -2
-13 -8 -13 -14 0 -7 -4 -12 -10 -12 -5 0 -10 5 -10 10 0 6 -7 15 -15 20 -10 6
-11 10 -3 10 8 0 11 9 9 23 -3 12 -5 26 -5 30 -1 4 -7 2 -15 -5 -11 -11 -11
-15 3 -26 14 -11 13 -12 -5 -3 -12 6 -24 8 -28 6 -3 -3 -2 1 4 7 5 7 10 19 10
27 -1 13 -3 13 -14 -2 -12 -16 -14 -16 -20 -2 -3 10 -11 13 -18 9 -8 -5 -7 -1
2 10 16 20 23 49 10 41 -5 -3 -13 3 -19 12 -6 10 -11 13 -11 7 0 -7 -7 -15
-16 -18 -8 -3 -12 -2 -9 4 3 5 -5 15 -19 22 -14 6 -26 18 -26 26 0 9 -6 12
-17 7 -15 -5 -16 -4 -5 7 11 11 16 9 30 -7 9 -12 26 -27 37 -35 18 -14 19 -13
8 1 -7 8 -9 20 -5 25 4 5 3 6 -3 2 -15 -12 -25 -9 -25 8 0 9 5 12 12 8 6 -4 8
-3 5 3 -4 6 -27 9 -51 8 -40 -1 -43 0 -28 12 9 8 11 12 4 8 -6 -3 -15 1 -18 9
-3 9 -10 14 -14 11 -5 -3 -11 -2 -14 3 -8 13 28 11 37 -2 6 -7 7 -6 4 4 -2 8
-12 15 -23 16 -11 1 -30 6 -42 13 -17 9 -22 9 -22 -1 0 -8 -5 -6 -11 5 -6 9
-15 14 -21 11 -7 -4 -8 -2 -4 4 4 7 3 12 -2 12 -5 0 -14 11 -21 24 -10 18 -20
22 -42 20 -16 -2 -29 1 -29 7 0 6 -8 9 -18 7 -12 -4 -18 1 -18 13 0 12 4 15
11 9 6 -5 17 -5 25 2 13 8 12 9 -2 5 -19 -6 -42 15 -30 28 4 5 1 5 -6 1 -7 -4
-10 -12 -7 -17 4 -5 1 -9 -4 -9 -6 0 -11 7 -11 16 0 8 -5 12 -10 9 -6 -4 -7
-12 -3 -18 5 -9 3 -9 -8 0 -12 10 -18 10 -29 0 -11 -9 -10 -7 0 7 13 18 13 19
-1 14 -10 -4 -16 -1 -16 8 0 12 4 12 24 -1 13 -9 23 -11 23 -6 0 5 -10 13 -21
16 -17 6 -19 9 -8 16 9 6 10 9 2 9 -6 0 -15 -4 -18 -10 -9 -15 -27 -12 -19 3
4 6 4 9 0 5 -5 -4 -20 4 -34 18 -29 26 -46 31 -39 12 2 -7 10 -12 16 -10 7 1
9 -2 5 -9 -4 -7 -3 -9 4 -5 6 3 14 1 18 -6 4 -7 4 -10 -1 -6 -4 4 -14 3 -22
-4 -11 -9 -13 -8 -11 2 2 8 -4 14 -12 15 -8 1 -14 7 -12 15 2 10 0 11 -11 2
-11 -9 -14 -8 -14 3 0 8 7 15 16 16 10 0 6 5 -9 11 -41 18 -53 19 -39 2 6 -7
15 -11 20 -8 5 3 6 -2 3 -11 -5 -13 -9 -12 -25 7 -11 12 -17 28 -14 36 3 9 0
12 -8 9 -19 -7 -16 31 3 43 11 7 10 9 -8 7 -12 0 -22 -5 -22 -9 0 -4 -4 -8 -8
-8 -5 0 -9 7 -9 15 0 8 4 12 9 9 4 -3 8 0 8 6 0 6 4 9 8 6 5 -3 9 1 9 9 0 9
-4 11 -11 6 -14 -11 -47 -10 -40 1 3 5 9 6 14 3 5 -3 12 0 16 6 4 8 3 9 -4 5
-7 -4 -13 -2 -13 3 -5 41 -20 62 -40 56 -21 -7 -27 10 -6 19 6 3 -2 3 -19 1
-35 -5 -65 17 -43 31 8 4 9 3 5 -4 -5 -8 -1 -10 11 -6 15 5 16 4 3 -5 -9 -7
-10 -11 -3 -11 6 0 15 5 18 10 4 6 12 7 18 4 7 -4 8 -3 4 1 -9 11 -34 17 -64
16 -13 0 -23 4 -23 10 0 5 4 8 8 5 5 -3 9 1 9 9 0 22 -15 18 -22 -6 -6 -17 -9
-19 -16 -8 -7 12 -10 12 -18 1 -7 -11 -9 -10 -15 3 -3 9 -10 14 -15 10 -5 -3
-12 -1 -16 4 -3 6 -12 8 -20 5 -8 -4 -12 -11 -8 -18 4 -6 0 -5 -9 2 -14 11
-18 10 -27 -5 -6 -10 -11 -13 -11 -7 0 12 30 41 37 36 3 -2 8 0 11 4 4 4 2 4
-5 1 -6 -4 -14 -1 -16 5 -4 10 -6 10 -6 1 -1 -7 -6 -13 -12 -13 -5 0 -7 6 -3
13 4 7 3 9 -2 4 -5 -5 -10 -13 -10 -18 -1 -5 -2 -11 -3 -14 0 -3 -10 -1 -21 5
-12 7 -18 16 -13 23 4 7 0 7 -10 -2 -18 -15 -23 -26 -7 -16 6 3 10 1 10 -4 0
-6 -5 -11 -11 -11 -5 0 -7 -5 -3 -12 4 -7 3 -8 -5 -4 -6 4 -9 12 -6 17 4 5 1
9 -6 9 -8 0 -8 4 1 15 19 22 6 18 -15 -5z m5 -14 c0 -2 -8 -10 -17 -17 -16
-13 -17 -12 -4 4 13 16 21 21 21 13z m-37 -26 c3 -11 1 -18 -4 -14 -5 3 -9 12
-9 20 0 20 7 17 13 -6z m413 -95 c-1 -8 -5 -17 -9 -21 -3 -4 -5 3 -2 15 2 11
0 21 -6 21 -5 0 -9 5 -9 11 0 8 4 8 14 0 8 -7 13 -18 12 -26z m-601 -25 c-3
-5 -1 -10 5 -10 6 0 8 -5 4 -11 -4 -8 -9 -7 -15 2 -7 12 -3 29 7 29 3 0 2 -4
-1 -10z m-183 -46 c-8 -14 -9 -13 -9 10 0 18 3 24 9 18 7 -7 7 -16 0 -28z
m-582 -24 c0 -5 -4 -10 -10 -10 -5 0 -10 5 -10 10 0 6 5 10 10 10 6 0 10 -4
10 -10z m400 0 c0 -5 -5 -10 -11 -10 -5 0 -7 5 -4 10 3 6 8 10 11 10 2 0 4 -4
4 -10z m991 -23 c-10 -9 -11 -8 -5 6 3 10 9 15 12 12 3 -3 0 -11 -7 -18z
m-1204 7 c-3 -3 -12 -4 -19 -1 -8 3 -5 6 6 6 11 1 17 -2 13 -5z m68 -23 c3 -5
2 -12 -3 -15 -5 -3 -9 1 -9 9 0 17 3 19 12 6z m390 -93 c18 2 19 2 2 -8 -9 -6
-22 -8 -28 -4 -8 4 -8 0 0 -15 13 -23 22 -28 19 -9 -2 7 7 14 19 16 15 2 20 8
17 20 -5 14 -4 14 4 3 13 -18 57 -27 46 -9 -4 7 -3 8 5 4 6 -4 8 -13 4 -19
-17 -28 -10 -43 20 -38 4 0 7 -4 7 -10 0 -6 -9 -8 -22 -4 -19 6 -21 5 -10 -6
6 -7 12 -18 12 -23 0 -6 -7 -2 -15 8 -8 10 -12 24 -8 30 3 6 2 7 -3 3 -5 -5
-10 -13 -10 -18 -3 -22 -5 -23 -13 -10 -7 10 -9 6 -8 -13 2 -23 4 -24 14 -10
11 15 13 15 30 -1 16 -17 16 -17 -4 -11 -12 4 -24 2 -27 -3 -4 -6 -14 -7 -24
-4 -15 6 -15 5 -3 -10 7 -9 9 -17 3 -17 -14 0 -23 28 -12 35 13 8 13 25 -1 25
-5 0 -7 -4 -4 -10 3 -5 -1 -10 -9 -10 -9 0 -13 -6 -10 -14 3 -8 0 -17 -7 -22
-8 -4 -10 -3 -5 5 4 6 2 19 -6 28 -11 14 -11 16 1 8 10 -5 12 -4 7 3 -4 7 -2
12 5 12 7 0 9 3 6 7 -4 3 -19 -4 -33 -18 l-27 -24 13 23 c11 22 10 23 -9 17
-14 -4 -21 -2 -21 7 0 10 -3 9 -10 -2 -5 -8 -10 -10 -10 -4 0 5 5 15 12 22 15
15 3 16 -22 2 -13 -7 -21 -6 -26 2 -4 7 -4 10 0 6 13 -11 44 25 33 40 -7 9 -6
11 7 6 10 -4 15 -13 12 -20 -3 -9 1 -11 12 -8 10 4 13 2 7 -3 -13 -10 -13 -28
-2 -40 5 -4 8 -3 7 2 -5 23 1 36 13 29 6 -4 3 2 -7 14 -16 19 -17 22 -3 22 8
0 18 -6 21 -12 3 -7 3 -1 1 15 -3 19 0 25 8 20 7 -4 21 -6 32 -5z m945 -8 c8
-5 11 -10 5 -10 -5 0 -17 5 -25 10 -8 5 -10 10 -5 10 6 0 17 -5 25 -10z
m-1884 -179 c-17 -10 -24 -21 -21 -31 5 -11 3 -12 -5 -4 -12 12 -3 47 11 38 5
-3 12 2 15 10 3 9 11 13 16 10 6 -4 -1 -14 -16 -23z m1725 -55 c5 3 8 0 7 -8
-2 -7 6 -13 17 -13 11 0 19 -5 18 -10 -1 -6 4 -17 10 -25 7 -8 -5 -1 -25 14
-21 16 -38 23 -38 17 0 -7 -4 -10 -9 -7 -4 3 -17 -5 -28 -17 -20 -21 -23 -51
-7 -65 4 -4 4 1 1 10 -3 10 -2 20 4 23 5 4 7 9 5 13 -7 12 19 29 43 27 13 -1
29 -9 36 -18 13 -19 31 -22 37 -8 2 5 10 2 18 -7 13 -14 12 -15 -3 -9 -9 3
-17 2 -17 -4 0 -6 -5 -7 -12 -3 -6 4 -8 3 -5 -3 4 -6 21 -9 39 -7 24 3 29 1
18 -6 -14 -9 -7 -14 13 -11 5 1 5 -4 1 -10 -5 -9 -2 -10 10 -6 11 4 15 3 11
-4 -4 -6 -13 -8 -21 -5 -8 3 -14 -1 -14 -9 0 -8 -4 -16 -10 -16 -5 -1 -16 -2
-22 -3 -7 -1 -12 -8 -10 -16 2 -11 -1 -10 -11 2 -8 10 -17 16 -20 13 -4 -3 -4
-2 -1 2 3 4 13 8 22 8 9 0 16 6 15 13 -2 6 2 12 8 12 6 0 8 -7 5 -16 -3 -8 -2
-12 3 -9 6 3 9 14 8 25 -1 10 -5 16 -11 13 -5 -4 -6 0 -2 8 4 8 1 6 -8 -5 -8
-10 -20 -15 -27 -10 -7 4 -10 3 -6 -3 3 -5 -2 -17 -13 -25 -15 -13 -19 -14
-24 -3 -3 8 3 15 12 17 14 3 13 5 -5 10 -19 5 -21 2 -18 -23 2 -16 0 -31 -5
-34 -6 -3 -7 1 -4 9 3 9 1 16 -5 16 -6 0 -11 -5 -11 -11 0 -5 -4 -7 -10 -4
-12 8 -13 26 -1 23 5 -2 9 0 10 5 3 25 -1 29 -12 12 -10 -12 -16 -14 -21 -7
-4 7 -2 12 5 12 7 0 9 3 6 6 -4 4 -12 2 -20 -4 -7 -6 -18 -7 -26 -3 -10 7 -9
10 8 16 11 3 21 10 21 15 0 5 -8 7 -17 4 -11 -4 -14 -3 -7 3 6 4 10 16 8 26
-1 10 2 14 9 10 6 -4 8 0 4 10 -3 9 -3 16 1 16 18 -3 33 2 28 9 -2 4 -1 14 5
22 6 10 9 11 9 3 0 -7 4 -13 10 -13 5 0 8 6 6 13 -1 6 -1 9 1 4 3 -4 9 -5 14
-1z m-1811 -40 c0 -3 -4 -8 -10 -11 -5 -3 -10 -1 -10 4 0 6 5 11 10 11 6 0 10
-2 10 -4z m2471 -53 c10 -11 10 -14 2 -9 -8 4 -13 2 -13 -6 0 -10 -3 -9 -9 2
-6 8 -7 18 -5 22 7 11 10 10 25 -9z m-730 -64 c-2 -2 1 -15 9 -29 l12 -25 -21
23 c-12 12 -27 19 -33 16 -6 -4 -8 -3 -4 4 3 5 0 12 -6 15 -7 3 1 4 17 2 17
-1 28 -4 26 -6z m-1917 -40 c-19 -21 -48 -26 -41 -6 2 6 12 11 21 9 9 -2 16 1
15 5 -3 17 1 24 12 18 7 -5 4 -14 -7 -26z m1096 -8 c0 8 4 7 13 -4 16 -23 67
-33 67 -13 0 10 6 13 16 9 9 -3 20 0 25 8 5 9 7 3 4 -19 -2 -18 0 -30 5 -27 4
3 10 0 12 -7 3 -8 7 -6 11 5 3 9 2 16 -2 14 -5 -1 -9 3 -10 8 -1 6 2 10 7 10
4 0 13 4 21 9 11 7 12 6 5 -5 -13 -22 -12 -56 2 -56 7 0 11 4 8 8 -2 4 -1 9 3
12 5 2 3 2 -4 1 -7 -2 -10 3 -6 13 5 13 11 11 31 -13 14 -16 33 -28 41 -26 14
2 14 1 1 -7 -8 -5 -18 -7 -22 -5 -4 3 -8 0 -8 -6 0 -7 8 -9 20 -5 23 7 26 -4
8 -24 -11 -11 -8 -12 12 -7 23 6 23 6 5 -5 -11 -7 -23 -18 -27 -25 -5 -7 -17
-10 -30 -6 -14 3 -19 1 -14 -6 3 -6 1 -14 -5 -18 -8 -4 -9 -3 -5 4 3 6 -2 16
-13 21 -28 15 -38 14 -16 -2 13 -10 15 -16 6 -21 -6 -4 -9 -11 -6 -16 3 -5 1
-11 -4 -15 -6 -3 -8 3 -6 15 2 11 0 22 -6 25 -9 6 -12 -5 -10 -35 0 -10 -1
-11 -5 -2 -3 6 -10 10 -15 6 -5 -3 -9 0 -9 5 0 6 5 11 10 11 6 0 10 8 10 18
-1 16 -1 16 -11 -1 -6 -9 -15 -15 -21 -11 -6 4 -5 10 3 15 10 7 9 8 -6 7 -11
-2 -21 2 -22 7 -1 6 6 9 17 9 11 -1 17 2 15 6 -5 9 -20 7 -45 -3 -23 -10 -73
-3 -78 11 -2 8 3 10 15 6 15 -5 15 -4 3 5 -17 12 -30 2 -35 -25 -2 -11 -4 -21
-4 -23 -1 -2 -8 2 -16 9 -12 10 -15 10 -15 -1 -1 -8 -8 -2 -16 14 -8 15 -16
27 -18 27 -8 0 0 -35 9 -43 6 -4 -3 -5 -20 -2 -46 9 -49 10 -64 19 -10 7 -13
5 -9 -5 4 -10 -2 -14 -20 -16 -18 -1 -21 1 -11 8 8 5 11 9 7 9 -5 0 -10 -1
-11 -2 -2 -2 -11 3 -21 11 -14 12 -16 12 -11 -2 4 -8 1 -18 -6 -22 -7 -5 -10
-3 -7 6 8 20 -11 51 -25 42 -17 -10 -47 -11 -41 -1 4 5 12 7 19 4 20 -7 26 5
13 23 -9 12 -8 12 7 -1 17 -16 19 -16 32 0 8 9 12 11 8 5 -3 -7 -1 -21 4 -30
6 -10 11 -14 11 -9 0 5 9 1 19 -8 13 -12 21 -14 26 -6 3 5 11 8 16 5 5 -4 9
-2 9 4 0 17 -18 21 -24 5 -3 -8 -11 -12 -17 -8 -8 4 -7 9 2 15 10 6 11 9 2 9
-7 0 -13 5 -13 11 0 6 6 9 14 6 15 -6 36 11 36 28 0 5 -7 1 -15 -9 -16 -22
-16 -21 -20 12 -2 17 1 20 11 12 9 -8 15 -6 23 7 6 11 11 13 11 5 0 -7 4 -11
9 -7 5 3 12 1 16 -4 3 -6 -4 -8 -16 -6 -12 2 -19 2 -16 -1 3 -3 7 -5 9 -3 2 1
13 -3 26 -10 l23 -12 -17 33 c-10 20 -11 28 -3 21 7 -7 16 -13 21 -13 4 0 6 6
4 13 -1 6 -1 9 1 5 3 -5 9 -8 14 -8 6 0 8 4 4 9 -3 5 0 13 6 17 8 4 9 3 5 -4
-4 -6 6 -18 23 -27 27 -13 30 -13 25 0 -4 8 -3 22 0 31 5 13 9 14 21 4 12 -10
15 -10 15 1z m50 -6 c5 3 11 1 14 -4 4 -5 -2 -8 -11 -6 -10 2 -22 4 -26 4 -5
1 -5 6 -1 13 6 9 9 9 12 0 2 -7 8 -10 12 -7z m-102 -20 c-3 -3 -9 2 -12 12 -6
14 -5 15 5 6 7 -7 10 -15 7 -18z m-183 -67 c1 -17 -3 -24 -12 -21 -11 4 -11 8
-1 20 9 11 9 17 -3 25 -12 8 -12 9 1 5 8 -2 15 -15 15 -29z m-1475 -53 c4 3
14 -3 21 -12 12 -15 12 -16 -1 -8 -25 15 -52 17 -44 3 5 -9 2 -9 -9 1 -18 14
-23 26 -8 16 5 -3 13 0 17 7 6 9 9 9 12 0 2 -7 7 -10 12 -7z m1417 -7 c-3 -8
-6 -5 -6 6 -1 11 2 17 5 13 3 -3 4 -12 1 -19z m-1832 2 c3 -5 1 -10 -4 -10 -6
0 -11 5 -11 10 0 6 2 10 4 10 3 0 8 -4 11 -10z m2126 -4 c8 4 9 3 5 -4 -10
-17 -33 -15 -40 4 -5 14 -4 15 8 5 8 -7 21 -9 27 -5z m2473 -2 c3 -8 2 -12 -4
-9 -6 3 -10 10 -10 16 0 14 7 11 14 -7z m141 6 c3 -5 1 -10 -4 -10 -6 0 -11 5
-11 10 0 6 2 10 4 10 3 0 8 -4 11 -10z m58 -3 c-2 -4 -5 -7 -8 -7 -3 0 -12 0
-21 0 -8 0 -13 4 -10 9 7 10 42 8 39 -2z m-5033 -22 c0 -8 -2 -15 -4 -15 -2 0
-6 7 -10 15 -3 8 -1 15 4 15 6 0 10 -7 10 -15z m2420 0 c17 -9 30 -21 30 -28
0 -8 -4 -7 -10 3 -9 13 -11 13 -21 0 -9 -12 -10 -12 -5 4 5 14 2 17 -9 12 -9
-3 -13 -2 -10 4 9 14 -8 12 -25 -2 -12 -11 -12 -10 -1 5 16 21 15 21 51 2z
m2780 -6 c0 -4 -9 -7 -19 -6 -11 0 -18 4 -16 7 6 9 35 8 35 -1z m-5248 -56
c-6 -2 -9 -10 -6 -15 4 -7 2 -8 -5 -4 -13 9 -5 26 12 25 9 0 8 -2 -1 -6z m-12
-144 c0 -21 -15 -25 -26 -7 -4 7 -3 8 4 4 7 -4 12 -2 12 3 0 6 -5 11 -11 11
-5 0 -7 5 -4 10 9 15 25 2 25 -21z m5377 -35 c-3 -3 -12 -4 -19 -1 -8 3 -5 6
6 6 11 1 17 -2 13 -5z m-5 -28 c7 4 8 2 4 -5 -9 -13 -26 -5 -25 12 0 9 2 8 6
-1 2 -6 10 -9 15 -6z m8 -30 c0 -2 -7 -6 -15 -10 -8 -3 -15 -1 -15 4 0 6 7 10
15 10 8 0 15 -2 15 -4z m-15 -65 c3 -5 2 -12 -3 -15 -5 -3 -9 1 -9 9 0 17 3
19 12 6z m9 -78 c3 -12 -1 -20 -10 -20 -9 0 -11 4 -5 10 5 5 7 17 4 26 -4 9
-3 13 1 10 4 -4 8 -15 10 -26z m6 -89 c0 -8 -19 -13 -24 -6 -3 5 1 9 9 9 8 0
15 -2 15 -3z m0 -89 c0 -7 -30 -13 -34 -7 -3 4 4 9 15 9 10 1 19 0 19 -2z
m-15 -64 c3 -5 2 -12 -3 -15 -5 -3 -9 1 -9 9 0 17 3 19 12 6z m-5352 -26 c4
-8 3 -16 -1 -19 -4 -3 -9 4 -9 15 -2 23 3 25 10 4z m5359 -67 c-6 -6 -12 -6
-17 3 -6 8 -4 10 5 4 9 -5 10 -1 6 16 -6 21 -6 22 5 6 7 -13 8 -22 1 -29z m-2
-48 c1 12 3 11 11 -3 12 -21 4 -37 -19 -37 -13 0 -13 2 4 15 10 9 13 14 5 13
-7 -2 -16 4 -18 12 -4 13 -3 13 6 0 10 -13 11 -13 11 0z m10 -186 c0 -8 -19
-13 -24 -6 -3 5 1 9 9 9 8 0 15 -2 15 -3z m0 -88 c0 -2 -7 -6 -15 -10 -8 -3
-15 -1 -15 4 0 6 7 10 15 10 8 0 15 -2 15 -4z m-8 -158 c-6 -6 -12 -6 -17 3
-6 8 -4 10 5 4 9 -5 10 -1 6 16 -6 21 -6 22 5 6 7 -13 8 -22 1 -29z m-2 -48
c1 12 3 11 11 -3 12 -21 4 -37 -19 -37 -13 0 -13 2 4 15 10 9 13 14 5 13 -7
-2 -16 4 -18 12 -4 13 -3 13 6 0 10 -13 11 -13 11 0z m-5369 -103 c-10 -9 -11
-8 -5 6 3 10 9 15 12 12 3 -3 0 -11 -7 -18z m5379 -83 c0 -8 -19 -13 -24 -6
-3 5 1 9 9 9 8 0 15 -2 15 -3z m0 -89 c0 -7 -30 -13 -34 -7 -3 4 4 9 15 9 10
1 19 0 19 -2z m-15 -64 c3 -5 2 -12 -3 -15 -5 -3 -9 1 -9 9 0 17 3 19 12 6z
m8 -65 c3 -8 -2 -20 -11 -27 -14 -11 -15 -11 -5 0 6 7 9 20 6 27 -3 8 -3 14 0
14 3 0 7 -6 10 -14z m7 -102 c0 -8 -19 -13 -24 -6 -3 5 1 9 9 9 8 0 15 -2 15
-3z m-3 -30 c-3 -3 -12 -4 -19 -1 -8 3 -5 6 6 6 11 1 17 -2 13 -5z m-5357 -18
c0 -2 -8 -10 -17 -17 -16 -13 -17 -12 -4 4 13 16 21 21 21 13z m5330 -192 c0
-8 -19 -13 -24 -6 -3 5 1 9 9 9 8 0 15 -2 15 -3z m-4638 -26 c-7 -7 -12 -8
-12 -2 0 14 12 26 19 19 2 -3 -1 -11 -7 -17z m1791 -28 c-4 -13 -4 -13 5 0 8
10 7 19 -1 29 -9 12 -9 13 1 7 7 -4 12 -2 12 5 0 8 3 9 13 0 8 -6 16 -8 19 -5
3 3 5 -2 5 -12 -1 -9 6 -18 16 -19 9 -2 15 1 11 6 -3 5 -11 6 -17 2 -7 -4 -5
2 3 13 22 29 24 30 17 12 -3 -10 0 -19 9 -22 8 -3 13 -2 10 2 -2 4 0 14 5 22
9 13 10 13 6 0 -2 -8 0 -24 6 -34 7 -15 6 -18 -5 -13 -8 3 -15 0 -15 -7 0 -6
8 -12 17 -12 11 0 17 8 16 25 -1 13 6 26 14 28 13 4 13 3 0 -6 -11 -8 -12 -11
-2 -11 7 0 11 -4 8 -8 -6 -11 62 -8 72 3 4 5 2 5 -4 2 -6 -3 -11 1 -11 9 0 10
4 11 11 4 13 -13 29 -13 21 1 -4 6 2 5 14 -3 12 -7 21 -16 21 -21 0 -4 4 -6
10 -2 5 3 6 13 3 22 -6 15 -5 16 9 3 10 -9 13 -19 7 -24 -17 -19 -9 -26 9 -8
10 9 18 22 17 27 -1 6 0 7 2 3 7 -12 31 -9 37 5 3 6 4 3 3 -8 -1 -11 3 -19 9
-18 6 1 11 -4 11 -12 0 -11 -5 -10 -24 2 -21 14 -26 14 -36 2 -7 -8 -8 -11 -3
-6 19 14 28 7 15 -10 -13 -16 -12 -17 3 -4 15 11 19 11 24 -3 3 -9 10 -14 14
-11 5 3 7 -2 6 -11 -3 -18 -26 -35 -38 -28 -4 3 -5 -2 -1 -11 4 -12 8 -13 13
-5 5 8 9 7 13 -3 4 -11 -1 -14 -23 -13 -21 2 -27 -1 -20 -9 6 -7 7 -15 3 -18
-3 -4 -1 -7 5 -7 7 0 12 5 12 10 0 6 5 10 11 10 8 0 8 -5 -1 -15 -10 -12 -10
-18 1 -32 13 -16 13 -16 -11 0 -33 23 -48 22 -20 -1 21 -17 21 -18 4 -32 -17
-14 -18 -13 -6 1 10 14 10 18 -1 22 -17 6 -22 -50 -6 -70 10 -11 10 -13 0 -11
-8 2 -15 -5 -16 -15 -2 -11 -6 -22 -9 -25 -8 -8 -2 30 7 44 4 7 0 14 -8 17 -9
4 -12 1 -8 -9 3 -7 0 -14 -5 -14 -7 0 -8 -10 -2 -30 5 -16 5 -30 2 -30 -4 0
-12 -10 -17 -22 -6 -12 -17 -23 -25 -26 -12 -3 -13 -2 -1 6 8 6 10 15 6 22 -5
8 -4 11 2 7 6 -4 13 0 16 8 4 10 1 12 -10 8 -12 -5 -14 -3 -8 7 5 8 4 11 -3 6
-6 -3 -9 -16 -7 -27 2 -11 -2 -22 -10 -25 -7 -3 -16 -13 -19 -21 -5 -13 -4
-14 9 -3 12 10 15 10 15 -3 0 -8 3 -24 6 -34 6 -16 5 -16 -9 2 -15 18 -16 19
-17 2 0 -10 -5 -15 -10 -12 -6 4 -7 11 -4 17 4 7 2 8 -4 4 -9 -5 -8 -15 3 -36
13 -26 13 -29 0 -24 -8 3 -13 11 -12 16 1 6 -5 13 -13 15 -12 4 -12 3 -1 -5 8
-6 9 -12 3 -16 -6 -3 -8 -15 -5 -25 3 -13 -2 -21 -17 -26 -12 -4 -19 -12 -17
-19 3 -7 -4 -18 -15 -25 -11 -7 -17 -19 -14 -27 8 -22 -2 -17 -15 7 -9 17 -8
20 2 14 8 -6 10 -4 4 5 -5 8 -4 11 3 6 6 -3 14 -1 18 5 4 8 3 9 -4 5 -7 -4
-12 -2 -12 4 0 7 -6 5 -15 -4 -9 -8 -12 -22 -8 -33 3 -10 3 -15 -2 -11 -4 4
-14 3 -21 -3 -14 -11 -64 14 -64 33 0 5 -7 2 -16 -6 -8 -9 -19 -14 -24 -11 -5
3 -11 1 -15 -5 -3 -5 -12 -10 -18 -10 -8 0 -9 3 -1 8 6 4 3 14 -10 26 -12 12
-17 14 -14 5 3 -8 0 -20 -8 -26 -11 -11 -12 -7 -9 17 2 17 0 28 -6 24 -5 -3
-7 -10 -3 -15 3 -6 -7 -7 -26 -4 -24 4 -30 2 -24 -7 4 -7 -2 -5 -13 5 -11 10
-27 15 -37 11 -12 -5 -16 -1 -14 16 2 15 -3 24 -15 25 -9 2 -15 -1 -11 -6 3
-5 3 -9 0 -9 -2 0 -11 -3 -20 -6 -9 -3 -16 -1 -16 6 0 6 4 9 8 6 4 -2 8 5 9
17 0 12 -1 16 -4 9 -3 -6 -10 -9 -15 -6 -7 4 -8 2 -4 -4 4 -7 1 -12 -8 -12 -9
0 -16 -5 -16 -12 0 -6 -3 -8 -6 -5 -4 4 -1 14 7 24 8 9 9 14 2 10 -6 -4 -13
-3 -15 3 -2 6 -14 4 -31 -5 -15 -8 -25 -10 -22 -5 3 5 -3 14 -12 20 -13 9 -14
10 -2 7 9 -3 16 1 16 8 0 11 -5 11 -19 4 -25 -14 -52 -3 -44 17 3 8 2 12 -4 9
-6 -3 -13 1 -16 9 -3 9 -11 16 -16 16 -6 0 -5 -6 2 -15 18 -22 -3 -18 -33 5
-17 13 -24 27 -21 38 4 11 3 13 -3 5 -8 -12 -93 -25 -91 -14 0 3 0 15 -1 26
-1 17 -3 18 -11 5 -8 -12 -10 -10 -11 10 0 14 -3 19 -6 13 -2 -7 -9 -13 -14
-13 -6 0 -7 5 -4 10 3 6 1 10 -4 10 -6 0 -11 -5 -11 -12 0 -6 -3 -8 -6 -5 -4
4 -1 14 6 22 11 13 11 16 -1 13 -8 -2 -13 2 -12 8 1 7 -5 11 -15 10 -10 0 -16
6 -16 16 1 10 -2 15 -7 12 -5 -3 -15 -2 -21 3 -20 12 -38 12 -38 1 0 -6 7 -7
16 -4 10 4 13 2 8 -7 -4 -6 -4 -9 1 -5 11 11 35 -11 34 -31 0 -13 -2 -13 -8 2
-4 10 -11 19 -16 19 -32 1 -60 43 -29 43 5 0 15 4 22 9 11 6 10 12 -2 31 -10
15 -12 26 -6 30 16 10 12 28 -5 22 -8 -4 -17 -1 -21 5 -4 6 -3 8 4 4 6 -3 13
-2 17 4 3 5 -1 10 -10 10 -9 0 -13 5 -10 10 4 6 12 7 18 4 9 -5 9 -4 0 6 -6 7
-9 19 -6 26 3 8 0 14 -5 14 -6 0 -9 -9 -7 -20 4 -21 -9 -27 -20 -10 -3 6 -2
10 4 10 5 0 8 7 7 15 -3 19 -16 32 -16 16 0 -7 -5 -9 -11 -5 -8 5 -8 9 1 14 7
4 9 13 6 19 -4 6 -12 8 -18 5 -7 -4 -8 -2 -4 5 6 8 12 9 20 2 7 -6 16 -8 20
-4 4 4 4 0 1 -9 -4 -9 -2 -19 4 -23 7 -3 8 0 5 10 -5 11 -2 14 12 9 18 -5 18
-5 2 6 -22 14 -23 30 -2 30 8 0 13 -4 10 -9 -3 -4 6 -6 19 -3 14 2 25 8 25 13
0 5 -7 6 -15 3 -10 -4 -15 0 -14 12 0 13 2 14 6 5 5 -11 7 -11 14 0 7 12 9 12
9 0 0 -10 6 -10 28 3 l27 17 -25 -22 c-18 -16 -20 -20 -7 -16 10 4 28 2 40 -5
19 -10 21 -9 9 4 -10 13 -10 18 -1 24 7 4 9 3 6 -3 -4 -6 0 -14 9 -17 13 -5
14 -9 4 -21 -11 -13 -10 -14 4 -9 17 6 18 34 2 45 -5 4 5 6 22 6 17 -1 28 -5
26 -8 -2 -4 3 -10 11 -13 11 -4 15 0 13 11 -2 9 4 18 12 20 12 4 12 2 2 -5
-11 -7 -11 -11 0 -20 10 -8 18 -8 28 0 12 8 12 9 -3 4 -10 -3 -16 -2 -13 3 3
5 15 11 26 14 11 3 18 1 14 -4 -3 -5 1 -18 9 -30 9 -13 17 -16 22 -10 3 6 1
11 -5 11 -6 0 -8 5 -4 12 5 7 3 8 -6 3 -8 -5 -11 -4 -7 3 8 11 25 11 44 -1 6
-4 19 -4 30 -1 15 5 15 4 3 -5 -8 -6 -10 -11 -5 -11 6 0 1 -7 -9 -15 -11 -8
-16 -15 -12 -15 10 0 52 33 54 43 2 9 12 10 11 1 0 -4 5 -10 12 -14 14 -9 59
9 59 24 0 5 7 1 16 -10 8 -10 13 -14 10 -7 -4 6 -1 15 5 19 8 4 9 3 5 -5 -5
-8 1 -11 21 -10 15 1 36 -2 47 -6 16 -7 17 -6 7 16 -10 20 -10 21 1 9 18 -21
72 -55 63 -39 -6 9 -2 11 13 7 12 -4 25 -1 29 4 3 6 1 8 -5 4 -6 -3 -14 -2
-17 4 -5 8 -11 8 -20 0 -11 -9 -16 -6 -25 12 -10 21 -10 21 3 5 9 -10 18 -14
21 -8 7 11 25 9 45 -3 8 -5 16 -3 22 5 5 8 9 9 9 3 0 -7 15 -14 33 -16 27 -4
29 -3 14 6 -45 27 -49 34 -11 19 29 -12 40 -22 37 -33z m-1818 31 c3 -5 2 -12
-3 -15 -5 -3 -9 1 -9 9 0 17 3 19 12 6z m2013 -16 c-3 -3 -9 2 -12 12 -6 14
-5 15 5 6 7 -7 10 -15 7 -18z m-2558 5 c0 -5 -2 -10 -4 -10 -3 0 -8 5 -11 10
-3 6 -1 10 4 10 6 0 11 -4 11 -10z m420 5 c0 -2 -6 -8 -13 -14 -10 -8 -14 -7
-14 2 0 8 6 14 14 14 7 0 13 -1 13 -2z m44 -11 c3 -8 2 -12 -4 -9 -6 3 -10 10
-10 16 0 14 7 11 14 -7z m136 6 c0 -5 -5 -10 -11 -10 -5 0 -7 5 -4 10 3 6 8
10 11 10 2 0 4 -4 4 -10z m940 0 c0 -5 -5 -10 -11 -10 -5 0 -7 5 -4 10 3 6 8
10 11 10 2 0 4 -4 4 -10z m480 5 c0 -2 -6 -8 -13 -14 -10 -8 -14 -7 -14 2 0 8
6 14 14 14 7 0 13 -1 13 -2z m2240 0 c0 -2 -6 -8 -13 -14 -10 -8 -14 -7 -14 2
0 8 6 14 14 14 7 0 13 -1 13 -2z m300 -3 c0 -5 -7 -9 -15 -9 -8 0 -15 4 -15 9
0 4 7 8 15 8 8 0 15 -4 15 -8z m583 -5 c3 -8 -1 -14 -8 -14 -7 0 -11 6 -8 14
3 7 6 13 8 13 2 0 5 -6 8 -13z m-1149 -86 c3 -5 -1 -14 -8 -20 -12 -10 -14 -9
-11 6 2 10 4 19 4 21 2 5 10 2 15 -7z m-2846 -34 c8 -10 6 -13 -11 -14 -12 0
-16 1 -9 4 6 3 10 9 6 14 -8 14 2 11 14 -4z m415 -68 c-9 -9 -7 -18 5 -37 16
-25 16 -25 -12 -18 -17 4 -25 3 -22 -3 4 -5 2 -12 -3 -15 -5 -4 -8 2 -6 11 1
10 10 17 19 17 21 -2 21 15 0 23 -15 6 -15 8 2 20 22 16 32 17 17 2z m-293
-69 c-12 -8 -12 -10 -1 -10 8 0 12 -3 8 -6 -9 -9 -28 6 -22 17 4 5 12 9 18 9
7 0 6 -4 -3 -10z m45 -30 c3 -6 -1 -7 -9 -4 -18 7 -21 14 -7 14 6 0 13 -4 16
-10z m5 -30 c0 -5 -2 -10 -4 -10 -3 0 -8 5 -11 10 -3 6 -1 10 4 10 6 0 11 -4
11 -10z m2435 -16 c-11 -8 -19 -21 -17 -28 1 -7 -5 -13 -13 -13 -17 0 -20 13
-5 22 6 4 7 11 4 17 -4 6 -3 8 2 5 6 -3 16 -2 24 4 24 14 27 10 5 -7z m-2115
-4 c0 -5 -4 -10 -10 -10 -5 0 -10 5 -10 10 0 6 5 10 10 10 6 0 10 -4 10 -10z
m1491 -64 c1 5 1 12 1 15 -1 8 30 5 45 -4 6 -4 14 -1 16 5 3 8 6 6 6 -4 1 -10
-3 -18 -8 -18 -15 0 -21 -30 -10 -51 5 -11 15 -16 21 -13 7 4 8 2 4 -5 -6 -9
-11 -9 -21 -1 -8 7 -15 7 -19 1 -3 -5 0 -12 6 -14 9 -4 10 -6 1 -6 -6 -1 -15
4 -18 9 -4 6 -12 4 -22 -6 -10 -10 -19 -12 -26 -5 -5 5 -15 7 -22 5 -7 -3 -16
-1 -20 5 -3 6 0 9 7 6 9 -4 14 2 15 16 2 17 -1 18 -13 8 -12 -10 -17 -10 -27
0 -9 10 -8 11 7 5 15 -6 17 -4 11 6 -5 9 -4 11 3 6 8 -4 12 0 13 11 0 15 2 14
9 -4 6 -15 15 -21 25 -16 13 5 14 7 3 14 -7 5 -13 20 -13 34 -1 24 0 25 12 9
7 -10 14 -14 14 -8z m94 -26 c-8 -9 -12 -19 -9 -23 3 -3 -1 -4 -10 -3 -8 1
-19 5 -22 9 -9 9 23 34 42 34 11 0 11 -4 -1 -17z m-1399 -13 c20 -18 23 -24
11 -24 -10 0 -15 3 -12 5 9 9 -35 33 -47 26 -7 -4 -8 -3 -4 4 10 17 22 15 52
-11z m59 -27 c-3 -5 -12 -10 -18 -10 -7 0 -6 4 3 10 19 12 23 12 15 0z m227
-77 c-6 -3 -10 -8 -8 -12 3 -4 -1 -8 -9 -8 -13 0 -12 4 2 19 9 10 19 15 22 12
3 -4 0 -9 -7 -11z m1373 8 c3 -5 2 -12 -3 -15 -5 -3 -9 1 -9 9 0 17 3 19 12 6z
m-1125 -61 c0 -5 -5 -10 -11 -10 -5 0 -7 5 -4 10 3 6 8 10 11 10 2 0 4 -4 4
-10z m962 -25 c0 -5 -5 -11 -11 -13 -6 -2 -11 4 -11 13 0 9 5 15 11 13 6 -2
11 -8 11 -13z m-1388 -61 c3 -8 2 -12 -4 -9 -6 3 -10 10 -10 16 0 14 7 11 14
-7z m70 -20 c3 -8 2 -12 -4 -9 -6 3 -10 10 -10 16 0 14 7 11 14 -7z m45 -17
c0 -9 -2 -8 -6 1 -2 6 -10 9 -15 6 -7 -4 -8 -2 -4 5 9 13 26 5 25 -12z m466
-155 c-3 -3 -11 0 -18 7 -9 10 -8 11 6 5 10 -3 15 -9 12 -12z m370 -32 c3 -5
1 -10 -4 -10 -6 0 -11 5 -11 10 0 6 2 10 4 10 3 0 8 -4 11 -10z"/>
<path d="M3050 4777 c0 -10 -4 -15 -10 -12 -5 3 -10 1 -10 -4 0 -13 10 -14 27
-3 8 5 9 13 3 22 -8 13 -10 12 -10 -3z"/>
<path d="M2950 4740 c-13 -8 -12 -10 3 -10 9 0 17 5 17 10 0 12 -1 12 -20 0z"/>
<path d="M3770 4499 c0 -5 5 -7 10 -4 6 3 10 8 10 11 0 2 -4 4 -10 4 -5 0 -10
-5 -10 -11z"/>
<path d="M3807 4459 c7 -7 15 -10 18 -7 3 3 -2 9 -12 12 -14 6 -15 5 -6 -5z"/>
<path d="M2860 4347 c0 -24 16 -29 31 -9 7 9 9 14 5 10 -5 -4 -15 -3 -23 3
-10 9 -13 8 -13 -4z"/>
<path d="M2795 4319 c-4 -6 -5 -12 -2 -15 2 -3 7 2 10 11 7 17 1 20 -8 4z"/>
<path d="M2815 4300 c3 -5 8 -10 11 -10 2 0 4 5 4 10 0 6 -5 10 -11 10 -5 0
-7 -4 -4 -10z"/>
<path d="M3093 4291 c0 -11 5 -18 9 -15 4 3 5 11 1 19 -7 21 -12 19 -10 -4z"/>
<path d="M2733 4263 c1 -15 5 -19 13 -13 6 6 15 6 19 2 5 -4 5 -1 1 6 -4 7
-11 10 -16 7 -4 -3 -10 1 -13 7 -3 7 -4 3 -4 -9z"/>
<path d="M3055 4260 c3 -5 8 -10 11 -10 2 0 4 5 4 10 0 6 -5 10 -11 10 -5 0
-7 -4 -4 -10z"/>
<path d="M3121 4251 c-7 -5 -10 -14 -7 -20 4 -6 2 -11 -3 -11 -6 0 -11 6 -11
13 0 6 -5 4 -11 -6 -9 -15 -13 -16 -27 -5 -15 12 -16 11 -3 -5 9 -12 17 -14
26 -7 8 6 15 6 23 -2 9 -9 12 -9 13 0 2 21 4 27 12 40 10 14 7 15 -12 3z"/>
<path d="M2715 4220 c-2 -4 1 -7 8 -7 7 0 17 -2 24 -4 6 -2 12 1 12 6 1 11
-37 16 -44 5z"/>
<path d="M2800 4218 c0 -6 3 -8 7 -5 3 4 13 1 22 -6 14 -11 14 -10 2 6 -15 20
-31 22 -31 5z"/>
<path d="M2994 2092 c0 -10 5 -19 12 -19 6 0 9 9 6 19 -2 10 -7 18 -11 18 -4
0 -7 -8 -7 -18z"/>
<path d="M2335 2090 c-3 -5 -5 -10 -3 -11 33 -8 38 -7 27 7 -14 17 -16 17 -24
4z"/>
<path d="M2496 2085 c4 -8 11 -15 16 -15 6 0 5 6 -2 15 -7 8 -14 15 -16 15 -2
0 -1 -7 2 -15z"/>
<path d="M2715 2079 c-4 -6 -5 -12 -2 -15 2 -3 7 2 10 11 7 17 1 20 -8 4z"/>
<path d="M2879 2073 c-12 -16 -12 -17 2 -6 9 7 20 9 24 5 5 -4 5 -1 1 6 -9 16
-11 15 -27 -5z"/>
<path d="M3219 2088 c0 -2 -2 -11 -4 -21 -3 -15 -1 -16 11 -6 7 6 11 15 8 20
-5 9 -13 12 -15 7z"/>
<path d="M2255 2060 c3 -5 8 -10 11 -10 2 0 4 5 4 10 0 6 -5 10 -11 10 -5 0
-7 -4 -4 -10z"/>
<path d="M2570 2059 c0 -5 5 -7 10 -4 6 3 10 8 10 11 0 2 -4 4 -10 4 -5 0 -10
-5 -10 -11z"/>
<path d="M2665 2060 c3 -5 8 -10 11 -10 2 0 4 5 4 10 0 6 -5 10 -11 10 -5 0
-7 -4 -4 -10z"/>
<path d="M2735 2060 c3 -5 8 -10 11 -10 2 0 4 5 4 10 0 6 -5 10 -11 10 -5 0
-7 -4 -4 -10z"/>
<path d="M3330 2027 c0 -10 8 -17 18 -17 9 0 13 4 7 8 -5 4 -13 11 -17 16 -5
5 -8 2 -8 -7z"/>
<path d="M3235 1780 c3 -5 8 -10 11 -10 2 0 4 5 4 10 0 6 -5 10 -11 10 -5 0
-7 -4 -4 -10z"/>
<path d="M2345 1710 c-4 -6 1 -7 11 -3 13 5 15 3 9 -7 -5 -9 -4 -11 4 -6 6 4
9 12 6 17 -8 12 -22 12 -30 -1z"/>
<path d="M2530 1635 c-11 -13 -10 -14 4 -9 9 3 16 10 16 15 0 13 -6 11 -20 -6z"/>
<path d="M2594 1629 c-3 -6 -2 -15 3 -20 5 -5 9 -1 9 11 0 23 -2 24 -12 9z"/>
<path d="M3095 1602 c4 -4 12 -7 18 -7 7 -1 11 -7 9 -14 -1 -7 2 -9 9 -6 13 9
-3 28 -27 31 -9 1 -13 -1 -9 -4z"/>
<path d="M2747 1556 c-4 -10 -1 -13 9 -9 7 3 14 9 14 14 0 14 -17 10 -23 -5z"/>
<path d="M2786 1553 c-4 -9 -4 -18 -1 -21 3 -3 5 0 5 8 0 10 3 10 15 0 19 -16
20 -3 1 15 -12 12 -15 12 -20 -2z"/>
<path d="M2895 1541 c-6 -10 11 -24 32 -27 19 -3 27 16 14 29 -9 9 -11 8 -6
-5 5 -12 2 -16 -12 -13 -10 1 -17 8 -15 14 3 13 -5 15 -13 2z"/>
<path d="M2994 1511 c11 -12 24 -20 29 -18 13 4 9 22 -6 22 -6 0 -19 5 -27 9
-9 6 -7 1 4 -13z"/>
<path d="M3753 1695 c-11 -8 -24 -11 -28 -7 -5 4 -5 1 -1 -6 4 -7 11 -10 16
-7 4 3 10 -2 14 -10 5 -15 -30 -42 -48 -37 -5 2 -3 -4 4 -13 13 -16 16 -15 37
11 12 16 20 30 18 33 -3 2 2 12 11 22 20 22 3 32 -23 14z m22 -5 c-3 -5 -12
-10 -18 -10 -7 0 -6 4 3 10 19 12 23 12 15 0z"/>
<path d="M3809 1663 c-13 -16 -12 -17 4 -4 16 13 21 21 13 21 -2 0 -10 -8 -17
-17z"/>
<path d="M3400 5181 c0 -6 4 -13 10 -16 6 -3 7 1 4 9 -7 18 -14 21 -14 7z"/>
<path d="M3546 5163 c-6 -14 -5 -15 5 -6 7 7 10 15 7 18 -3 3 -9 -2 -12 -12z"/>
<path d="M3250 5159 c0 -5 5 -7 10 -4 6 3 10 8 10 11 0 2 -4 4 -10 4 -5 0 -10
-5 -10 -11z"/>
<path d="M3147 5119 c7 -7 15 -10 18 -7 3 3 -2 9 -12 12 -14 6 -15 5 -6 -5z"/>
<path d="M2446 4998 c3 -5 10 -6 15 -3 13 9 11 12 -6 12 -8 0 -12 -4 -9 -9z"/>
<path d="M2375 4989 c-4 -6 -13 -8 -21 -5 -19 7 -18 4 5 -16 17 -15 21 -15 32
-2 10 12 9 13 -7 7 -17 -6 -17 -5 -5 10 7 9 11 17 8 17 -3 0 -9 -5 -12 -11z"/>
<path d="M2730 4996 c0 -2 8 -10 18 -17 15 -13 16 -12 3 4 -13 16 -21 21 -21
13z"/>
<path d="M2519 4988 c-10 -33 6 -46 28 -24 4 4 1 6 -7 4 -8 -1 -14 3 -12 10 2
10 -6 19 -9 10z"/>
<path d="M2635 4960 c-3 -5 -1 -10 4 -10 6 0 11 5 11 10 0 6 -2 10 -4 10 -3 0
-8 -4 -11 -10z"/>
<path d="M2275 4948 c4 -11 2 -18 -4 -18 -6 0 -11 -5 -11 -12 0 -8 6 -6 17 5
14 14 15 19 4 29 -10 11 -11 10 -6 -4z"/>
<path d="M3776 4942 c-3 -5 1 -9 9 -9 8 0 12 4 9 9 -3 4 -7 8 -9 8 -2 0 -6 -4
-9 -8z"/>
<path d="M3810 4920 c-9 -6 -10 -10 -3 -10 6 0 15 5 18 10 8 12 4 12 -15 0z"/>
<path d="M2190 4862 c0 -5 7 -9 15 -9 8 0 12 4 9 9 -3 4 -9 8 -15 8 -5 0 -9
-4 -9 -8z"/>
<path d="M4101 4741 c-7 -5 -9 -11 -5 -14 5 -3 15 1 22 9 14 16 5 18 -17 5z"/>
<path d="M2107 4699 c7 -9 9 -20 5 -25 -4 -4 1 -2 11 5 9 7 17 16 17 19 0 3
-3 2 -7 -1 -3 -4 -13 -1 -22 6 -14 10 -14 10 -4 -4z"/>
<path d="M4181 4699 c-1 -23 24 -42 61 -44 25 -2 28 -1 15 6 -9 6 -25 9 -34 7
-11 -2 -17 2 -15 10 1 8 -2 11 -7 8 -5 -4 -12 2 -14 11 -4 15 -5 15 -6 2z"/>
<path d="M2060 4680 c-9 -6 -10 -10 -3 -10 6 0 15 5 18 10 8 12 4 12 -15 0z"/>
<path d="M4335 4599 c-4 -6 -5 -12 -2 -15 2 -3 7 2 10 11 7 17 1 20 -8 4z"/>
<path d="M1950 4596 c0 -2 8 -10 18 -17 15 -13 16 -12 3 4 -13 16 -21 21 -21
13z"/>
<path d="M4461 4451 c-8 -5 -9 -11 -3 -15 5 -3 12 1 16 9 6 17 6 18 -13 6z"/>
<path d="M1766 4418 c3 -5 10 -6 15 -3 13 9 11 12 -6 12 -8 0 -12 -4 -9 -9z"/>
<path d="M4535 4360 c3 -5 8 -10 11 -10 2 0 4 5 4 10 0 6 -5 10 -11 10 -5 0
-7 -4 -4 -10z"/>
<path d="M4576 4321 c-4 -5 3 -7 14 -4 23 6 26 13 6 13 -8 0 -17 -4 -20 -9z"/>
<path d="M4613 4313 c-17 -6 -17 -20 0 -26 8 -3 13 3 13 14 0 11 0 19 -1 18 0
0 -6 -3 -12 -6z"/>
<path d="M1650 4280 c-9 -6 -10 -10 -3 -10 6 0 15 5 18 10 8 12 4 12 -15 0z"/>
<path d="M4635 4269 c-4 -6 -5 -12 -2 -15 2 -3 7 2 10 11 7 17 1 20 -8 4z"/>
<path d="M4650 4251 c-9 -17 -7 -19 11 -16 12 3 24 7 28 11 3 4 -2 4 -13 0
-14 -5 -17 -2 -12 9 8 22 -1 19 -14 -4z"/>
<path d="M5105 4259 c-3 -4 2 -6 10 -5 21 3 28 13 10 13 -9 0 -18 -4 -20 -8z"/>
<path d="M5513 4245 c0 -8 4 -12 9 -9 5 3 6 10 3 15 -9 13 -12 11 -12 -6z"/>
<path d="M717 4239 c7 -7 15 -10 18 -7 3 3 -2 9 -12 12 -14 6 -15 5 -6 -5z"/>
<path d="M5430 4240 c-13 -8 -12 -10 3 -10 9 0 17 5 17 10 0 12 -1 12 -20 0z"/>
<path d="M5550 4245 c0 -7 30 -13 34 -7 3 4 -4 9 -15 9 -10 1 -19 0 -19 -2z"/>
<path d="M5622 4238 c-15 -15 -15 -28 -1 -28 5 0 8 4 4 9 -3 6 3 14 12 20 10
6 13 11 8 11 -6 0 -16 -5 -23 -12z"/>
<path d="M668 4233 c6 -2 12 -9 12 -14 0 -6 -5 -7 -12 -3 -7 5 -8 3 -3 -5 5
-9 11 -9 17 -3 12 12 2 32 -15 31 -9 0 -9 -2 1 -6z"/>
<path d="M1229 4223 c-13 -17 -13 -17 6 -3 11 8 22 16 24 17 2 2 0 3 -6 3 -6
0 -17 -8 -24 -17z"/>
<path d="M1277 4233 c-10 -10 -8 -23 4 -23 5 0 8 4 5 9 -4 5 0 12 6 14 7 3 8
6 2 6 -6 1 -14 -2 -17 -6z"/>
<path d="M1315 4230 c-3 -6 1 -7 9 -4 18 7 21 14 7 14 -6 0 -13 -4 -16 -10z"/>
<path d="M1380 4236 c0 -2 7 -7 16 -10 8 -3 12 -2 9 4 -6 10 -25 14 -25 6z"/>
<path d="M1420 4236 c0 -2 7 -7 16 -10 8 -3 12 -2 9 4 -6 10 -25 14 -25 6z"/>
<path d="M1465 4229 c-4 -6 -5 -12 -2 -15 2 -3 7 2 10 11 7 17 1 20 -8 4z"/>
<path d="M1606 4227 c3 -10 9 -15 12 -12 3 3 0 11 -7 18 -10 9 -11 8 -5 -6z"/>
<path d="M4829 4223 c-13 -17 -13 -17 6 -3 11 8 22 16 24 17 2 2 0 3 -6 3 -6
0 -17 -8 -24 -17z"/>
<path d="M4948 4233 c7 -3 16 -2 19 1 4 3 -2 6 -13 5 -11 0 -14 -3 -6 -6z"/>
<path d="M4977 4221 c-4 -17 -3 -21 5 -13 5 5 8 16 6 23 -3 8 -7 3 -11 -10z"/>
<path d="M5194 4222 c3 -18 18 -20 24 -4 1 5 -4 12 -12 15 -9 4 -13 0 -12 -11z"/>
<path d="M5315 4230 c-3 -6 1 -7 9 -4 18 7 21 14 7 14 -6 0 -13 -4 -16 -10z"/>
<path d="M5380 4236 c0 -2 7 -7 16 -10 8 -3 12 -2 9 4 -6 10 -25 14 -25 6z"/>
<path d="M627 4216 c-4 -10 -1 -13 9 -9 15 6 19 23 5 23 -5 0 -11 -7 -14 -14z"/>
<path d="M704 4218 c3 -15 26 -23 26 -8 0 6 -4 9 -9 6 -5 -4 -12 -1 -14 4 -3
6 -4 5 -3 -2z"/>
<path d="M1530 4220 c0 -5 5 -10 10 -10 6 0 10 5 10 10 0 6 -4 10 -10 10 -5 0
-10 -4 -10 -10z"/>
<path d="M4870 4221 c0 -6 5 -13 10 -16 6 -3 10 1 10 9 0 9 -4 16 -10 16 -5 0
-10 -4 -10 -9z"/>
<path d="M5105 4222 c-3 -3 0 -11 6 -18 13 -16 50 -1 48 19 0 9 -2 9 -6 0 -2
-7 -9 -13 -14 -13 -6 0 -8 4 -5 8 5 9 -20 12 -29 4z"/>
<path d="M950 4216 c0 -2 7 -7 16 -10 8 -3 12 -2 9 4 -6 10 -25 14 -25 6z"/>
<path d="M469 4172 c7 -12 17 -20 22 -16 6 3 9 7 7 8 -2 1 -12 8 -22 16 -18
14 -19 14 -7 -8z"/>
<path d="M450 4069 c0 -5 5 -7 10 -4 6 3 10 8 10 11 0 2 -4 4 -10 4 -5 0 -10
-5 -10 -11z"/>
<path d="M416 3738 c3 -5 10 -6 15 -3 13 9 11 12 -6 12 -8 0 -12 -4 -9 -9z"/>
<path d="M433 3353 c9 -2 17 -9 17 -14 0 -6 -5 -7 -12 -3 -7 5 -8 3 -3 -5 5
-9 11 -9 17 -3 14 14 1 32 -20 31 -15 -1 -15 -2 1 -6z"/>
<path d="M415 3301 c-3 -5 -2 -12 3 -15 5 -3 9 1 9 9 0 17 -3 19 -12 6z"/>
<path d="M5847 3296 c-6 -16 1 -26 17 -26 6 0 4 5 -4 10 -10 6 -11 10 -2 10 6
0 12 5 12 10 0 15 -17 12 -23 -4z"/>
<path d="M445 3232 c-10 -7 -18 -32 -10 -32 2 0 9 9 15 20 12 22 11 24 -5 12z"/>
<path d="M5867 2979 c7 -7 15 -10 18 -7 3 3 -2 9 -12 12 -14 6 -15 5 -6 -5z"/>
<path d="M415 2901 c-3 -5 -2 -12 3 -15 5 -3 9 1 9 9 0 17 -3 19 -12 6z"/>
<path d="M434 2849 c-3 -6 1 -17 10 -25 9 -8 14 -11 11 -8 -3 4 0 13 5 19 8 9
6 14 -4 18 -9 4 -18 1 -22 -4z"/>
<path d="M5847 2816 c-6 -16 1 -26 17 -26 6 0 4 5 -4 10 -10 6 -11 10 -2 10 6
0 12 5 12 10 0 15 -17 12 -23 -4z"/>
<path d="M415 2581 c-3 -5 -2 -12 3 -15 5 -3 9 1 9 9 0 17 -3 19 -12 6z"/>
<path d="M434 2529 c-3 -6 1 -17 10 -25 9 -8 14 -11 11 -8 -3 4 0 13 5 19 8 9
6 14 -4 18 -9 4 -18 1 -22 -4z"/>
<path d="M430 2480 c0 -5 5 -10 11 -10 5 0 7 5 4 10 -3 6 -8 10 -11 10 -2 0
-4 -4 -4 -10z"/>
<path d="M445 2432 c-10 -7 -18 -32 -10 -32 2 0 9 9 15 20 12 22 11 24 -5 12z"/>
<path d="M5860 2286 c0 -2 8 -10 18 -17 15 -13 16 -12 3 4 -13 16 -21 21 -21
13z"/>
<path d="M5846 2261 c-3 -5 1 -11 9 -14 9 -4 12 -1 8 9 -6 16 -10 17 -17 5z"/>
<path d="M435 2229 c-4 -5 -4 -13 -1 -16 3 -4 6 0 6 8 0 11 2 11 10 -1 6 -9
10 -10 10 -3 0 17 -17 25 -25 12z"/>
<path d="M5780 2101 c0 -6 4 -13 10 -16 6 -3 7 1 4 9 -7 18 -14 21 -14 7z"/>
<path d="M550 2089 c0 -5 5 -7 10 -4 6 3 10 8 10 11 0 2 -4 4 -10 4 -5 0 -10
-5 -10 -11z"/>
<path d="M1480 2085 c-7 -9 -10 -18 -6 -22 3 -3 6 -1 6 6 0 7 4 10 9 6 5 -3
12 -1 15 4 11 17 -11 21 -24 6z"/>
<path d="M5320 2085 c-7 -9 -10 -18 -6 -22 3 -3 6 -1 6 6 0 7 4 10 9 6 5 -3
12 -1 15 4 11 17 -11 21 -24 6z"/>
<path d="M5705 2090 c-3 -5 -12 -7 -20 -3 -8 3 -15 1 -15 -5 0 -13 27 -9 42 6
7 7 9 12 6 12 -4 0 -9 -4 -13 -10z"/>
<path d="M710 2085 c0 -7 30 -13 34 -7 3 4 -4 9 -15 9 -10 1 -19 0 -19 -2z"/>
<path d="M1335 2080 c-8 -13 8 -18 29 -10 19 6 19 7 -2 12 -12 4 -24 2 -27 -2z"/>
<path d="M1519 2073 c-13 -16 -12 -17 4 -4 9 7 17 15 17 17 0 8 -8 3 -21 -13z"/>
<path d="M5234 2065 c0 -13 4 -21 8 -19 5 3 6 9 3 14 -3 4 0 10 7 12 8 3 7 6
-3 10 -11 4 -15 -1 -15 -17z"/>
<path d="M5484 2073 c1 -7 6 -16 10 -20 4 -4 6 -3 4 4 -1 6 0 11 5 12 22 3 27
0 21 -11 -4 -7 2 -4 14 6 12 11 22 20 22 20 0 1 -17 1 -39 1 -25 0 -38 -4 -37
-12z"/>
<path d="M5606 2078 c3 -5 10 -6 15 -3 13 9 11 12 -6 12 -8 0 -12 -4 -9 -9z"/>
<path d="M601 2061 c-10 -7 -7 -9 12 -8 14 1 23 5 20 10 -6 9 -15 9 -32 -2z"/>
<path d="M705 2060 c3 -5 8 -10 11 -10 2 0 4 5 4 10 0 6 -5 10 -11 10 -5 0 -7
-4 -4 -10z"/>
<path d="M885 2060 c3 -5 8 -10 11 -10 2 0 4 5 4 10 0 6 -5 10 -11 10 -5 0 -7
-4 -4 -10z"/>
<path d="M970 2059 c0 -5 5 -7 10 -4 6 3 10 8 10 11 0 2 -4 4 -10 4 -5 0 -10
-5 -10 -11z"/>
<path d="M1026 2058 c3 -5 10 -6 15 -3 13 9 11 12 -6 12 -8 0 -12 -4 -9 -9z"/>
<path d="M1095 2060 c3 -5 8 -10 11 -10 2 0 4 5 4 10 0 6 -5 10 -11 10 -5 0
-7 -4 -4 -10z"/>
<path d="M1535 2060 c-3 -6 1 -7 9 -4 18 7 21 14 7 14 -6 0 -13 -4 -16 -10z"/>
<path d="M4810 2059 c0 -5 5 -7 10 -4 6 3 10 8 10 11 0 2 -4 4 -10 4 -5 0 -10
-5 -10 -11z"/>
<path d="M4900 2059 c0 -5 5 -7 10 -4 6 3 10 8 10 11 0 2 -4 4 -10 4 -5 0 -10
-5 -10 -11z"/>
<path d="M4630 2022 c0 -5 7 -9 15 -9 8 0 12 4 9 9 -3 4 -9 8 -15 8 -5 0 -9
-4 -9 -8z"/>
<path d="M4536 1941 c-4 -5 -2 -12 3 -15 5 -4 12 -2 15 3 4 5 2 12 -3 15 -5 4
-12 2 -15 -3z"/>
<path d="M4443 1843 c0 -16 9 -17 25 -1 16 16 16 -4 0 -22 -11 -12 -10 -12 5
-1 10 8 16 19 14 24 -5 15 -44 15 -44 0z"/>
<path d="M1850 1800 c0 -5 5 -10 11 -10 5 0 7 5 4 10 -3 6 -8 10 -11 10 -2 0
-4 -4 -4 -10z"/>
<path d="M1906 1741 c8 -8 43 -8 38 0 -2 4 -13 7 -24 6 -10 -1 -17 -3 -14 -6z"/>
<path d="M1990 1676 c0 -2 8 -10 18 -17 15 -13 16 -12 3 4 -13 16 -21 21 -21
13z"/>
<path d="M4180 1602 c0 -4 10 -13 23 -21 22 -14 22 -14 3 8 -20 22 -26 25 -26
13z"/>
<path d="M2153 1565 c0 -7 6 -11 14 -8 7 3 13 6 13 8 0 2 -6 5 -13 8 -8 3 -14
-1 -14 -8z"/>
<path d="M4030 1523 c0 -4 5 -15 10 -23 8 -13 10 -13 10 2 0 9 -4 20 -10 23
-5 3 -10 3 -10 -2z"/>
<path d="M2295 1500 c-3 -5 -1 -10 4 -10 6 0 11 5 11 10 0 6 -2 10 -4 10 -3 0
-8 -4 -11 -10z"/>
<path d="M2321 1486 c-10 -11 -9 -14 1 -12 14 2 23 15 15 22 -2 2 -10 -2 -16
-10z"/>
<path d="M2462 1426 c7 -8 15 -12 17 -11 5 6 -10 25 -20 25 -5 0 -4 -6 3 -14z"/>
<path d="M2493 1415 c0 -8 4 -15 9 -15 4 0 8 4 8 9 0 6 -4 12 -8 15 -5 3 -9
-1 -9 -9z"/>
<path d="M3690 1365 c-7 -9 -11 -17 -9 -20 3 -2 10 5 17 15 14 24 10 26 -8 5z"/>
<path d="M3713 1355 c-3 -9 -3 -18 -1 -21 3 -3 8 4 11 16 6 23 -1 27 -10 5z"/>
<path d="M2945 1280 c-3 -6 1 -7 9 -4 18 7 21 14 7 14 -6 0 -13 -4 -16 -10z"/>
<path d="M3595 1239 c-4 -6 -5 -12 -2 -15 2 -3 7 2 10 11 7 17 1 20 -8 4z"/>
<path d="M3554 1214 c1 -8 4 -15 7 -16 2 -2 3 -1 2 1 -2 2 2 9 7 16 7 8 5 12
-4 12 -8 0 -13 -6 -12 -13z"/>
<path d="M3460 1166 c0 -2 8 -10 18 -17 15 -13 16 -12 3 4 -13 16 -21 21 -21
13z"/>
<path d="M3155 1149 c-4 -6 -5 -12 -2 -15 2 -3 7 2 10 11 7 17 1 20 -8 4z"/>
<path d="M3366 1145 c-3 -9 -10 -13 -16 -10 -17 10 -11 -2 8 -16 9 -7 14 -9
10 -5 -4 5 -3 15 4 23 6 7 9 16 6 19 -3 3 -8 -2 -12 -11z"/>
<path d="M3428 1143 c6 -3 10 -9 6 -14 -8 -14 2 -11 14 4 8 10 6 13 -11 14
-12 0 -16 -1 -9 -4z"/>
<path d="M3393 1125 c0 -8 4 -12 9 -9 5 3 6 10 3 15 -9 13 -12 11 -12 -6z"/>
</g>
</svg>
